<svg width="21" height="20" viewBox="0 0 21 20" fill="none" xmlns="http://www.w3.org/2000/svg">
<path d="M10.2406 2C14.6516 2 18.2406 5.589 18.2406 10C18.2406 14.411 14.6516 18 10.2406 18C5.8296 18 2.2406 14.411 2.2406 10C2.2406 5.589 5.8296 2 10.2406 2ZM10.2406 0C4.7176 0 0.240601 4.477 0.240601 10C0.240601 15.523 4.7176 20 10.2406 20C15.7636 20 20.2406 15.523 20.2406 10C20.2406 4.477 15.7636 0 10.2406 0ZM15.2406 9H11.2406V5H9.2406V9H5.2406V11H9.2406V15H11.2406V11H15.2406V9Z" fill="#D17C51"/>
</svg>
