<svg width="16" height="16" viewBox="0 0 16 16" fill="none" xmlns="http://www.w3.org/2000/svg">
<g clip-path="url(#clip0_791_4638)">
<path d="M9.25781 9.21094C8.79948 8.82031 8.29167 8.52083 7.73438 8.3125C7.17708 8.10417 6.59896 8 6 8C5.54167 8 5.09896 8.0599 4.67188 8.17969C4.24479 8.29948 3.84635 8.46615 3.47656 8.67969C3.10677 8.89323 2.77083 9.15365 2.46875 9.46094C2.16667 9.76823 1.90625 10.1068 1.6875 10.4766C1.46875 10.8464 1.29948 11.2448 1.17969 11.6719C1.0599 12.099 1 12.5417 1 13H0C0 12.375 0.0911458 11.7734 0.273438 11.1953C0.455729 10.6172 0.71875 10.0833 1.0625 9.59375C1.40625 9.10417 1.8125 8.66927 2.28125 8.28906C2.75 7.90885 3.28125 7.60938 3.875 7.39062C3.28646 7.00521 2.82812 6.52083 2.5 5.9375C2.17188 5.35417 2.00521 4.70833 2 4C2 3.44792 2.10417 2.92969 2.3125 2.44531C2.52083 1.96094 2.80469 1.53646 3.16406 1.17188C3.52344 0.807292 3.94792 0.520833 4.4375 0.3125C4.92708 0.104167 5.44792 0 6 0C6.55208 0 7.07031 0.104167 7.55469 0.3125C8.03906 0.520833 8.46354 0.804688 8.82812 1.16406C9.19271 1.52344 9.47917 1.94792 9.6875 2.4375C9.89583 2.92708 10 3.44792 10 4C10 4.34375 9.95833 4.67969 9.875 5.00781C9.79167 5.33594 9.66667 5.64583 9.5 5.9375C9.33333 6.22917 9.13802 6.4974 8.91406 6.74219C8.6901 6.98698 8.42708 7.20312 8.125 7.39062C8.46354 7.52083 8.78646 7.67969 9.09375 7.86719C9.40104 8.05469 9.6901 8.26562 9.96094 8.5L9.25781 9.21094ZM3 4C3 4.41667 3.07812 4.80469 3.23438 5.16406C3.39062 5.52344 3.60417 5.84115 3.875 6.11719C4.14583 6.39323 4.46354 6.60938 4.82812 6.76562C5.19271 6.92188 5.58333 7 6 7C6.41146 7 6.79948 6.92188 7.16406 6.76562C7.52865 6.60938 7.84635 6.39583 8.11719 6.125C8.38802 5.85417 8.60417 5.53646 8.76562 5.17188C8.92708 4.80729 9.00521 4.41667 9 4C9 3.58854 8.92188 3.20052 8.76562 2.83594C8.60938 2.47135 8.39583 2.15365 8.125 1.88281C7.85417 1.61198 7.53385 1.39583 7.16406 1.23438C6.79427 1.07292 6.40625 0.994792 6 1C5.58333 1 5.19531 1.07812 4.83594 1.23438C4.47656 1.39062 4.15885 1.60417 3.88281 1.875C3.60677 2.14583 3.39062 2.46615 3.23438 2.83594C3.07812 3.20573 3 3.59375 3 4ZM13.5 6C13.8438 6 14.1667 6.0651 14.4688 6.19531C14.7708 6.32552 15.0339 6.50521 15.2578 6.73438C15.4818 6.96354 15.6615 7.22917 15.7969 7.53125C15.9323 7.83333 16 8.15625 16 8.5C16 8.84375 15.9349 9.16667 15.8047 9.46875C15.6745 9.77083 15.4948 10.0365 15.2656 10.2656C15.0365 10.4948 14.7708 10.6745 14.4688 10.8047C14.1667 10.9349 13.8438 11 13.5 11C13.3802 11 13.263 10.9922 13.1484 10.9766L8.5625 15.5625C8.42188 15.7031 8.26042 15.8099 8.07812 15.8828C7.89583 15.9557 7.70312 15.9948 7.5 16C7.29167 16 7.09635 15.9609 6.91406 15.8828C6.73177 15.8047 6.57292 15.6979 6.4375 15.5625C6.30208 15.4271 6.19531 15.2682 6.11719 15.0859C6.03906 14.9036 6 14.7083 6 14.5C6 14.3021 6.03646 14.112 6.10938 13.9297C6.18229 13.7474 6.29167 13.5833 6.4375 13.4375L11.0234 8.85156C11.0078 8.73698 11 8.61979 11 8.5C11 8.15625 11.0651 7.83333 11.1953 7.53125C11.3255 7.22917 11.5026 6.96615 11.7266 6.74219C11.9505 6.51823 12.2161 6.33854 12.5234 6.20312C12.8307 6.06771 13.1562 6 13.5 6ZM13.5 10C13.7083 10 13.9036 9.96094 14.0859 9.88281C14.2682 9.80469 14.4271 9.69792 14.5625 9.5625C14.6979 9.42708 14.8047 9.26823 14.8828 9.08594C14.9609 8.90365 15 8.70833 15 8.5C15 8.28646 14.9505 8.07292 14.8516 7.85938L13.7109 9H13V8.28906L14.1406 7.14844C13.9271 7.04948 13.7135 7 13.5 7C13.2917 7 13.0964 7.03906 12.9141 7.11719C12.7318 7.19531 12.5729 7.30208 12.4375 7.4375C12.3021 7.57292 12.1953 7.73177 12.1172 7.91406C12.0391 8.09635 12 8.29167 12 8.5C12 8.71354 12.0495 8.92708 12.1484 9.14062L7.14844 14.1484C7.04948 14.2474 7 14.3646 7 14.5C7 14.6354 7.04948 14.7526 7.14844 14.8516C7.2474 14.9505 7.36458 15 7.5 15C7.63542 15 7.7526 14.9505 7.85156 14.8516L12.8594 9.85156C13.0729 9.95052 13.2865 10 13.5 10Z" fill="white"/>
</g>
<defs>
<clipPath id="clip0_791_4638">
<rect width="16" height="16" fill="white"/>
</clipPath>
</defs>
</svg>
