<svg width="18" height="22" viewBox="0 0 18 22" fill="none" xmlns="http://www.w3.org/2000/svg">
<path d="M8 9C10.2091 9 12 7.20914 12 5C12 2.79086 10.2091 1 8 1C5.79086 1 4 2.79086 4 5C4 7.20914 5.79086 9 8 9Z" stroke="#D17C51" stroke-width="1.5"/>
<path d="M13 21C15.2091 21 17 19.2091 17 17C17 14.7909 15.2091 13 13 13C10.7909 13 9 14.7909 9 17C9 19.2091 10.7909 21 13 21Z" stroke="#D17C51" stroke-width="1.5"/>
<path d="M16 14L10 20M10 19.834C9.366 19.942 8.695 20 8 20C4.134 20 1 18.21 1 16C1 13.79 4.134 12 8 12C9.713 12 11.283 12.352 12.5 12.936" stroke="#D17C51" stroke-width="1.5"/>
</svg>
