<svg width="38" height="33" viewBox="0 0 38 33" fill="none" xmlns="http://www.w3.org/2000/svg">
<mask id="path-1-inside-1_2673_10023" fill="white">
<path d="M36.6485 24.1254H34.8636V1.55574C34.8636 1.21028 34.6333 0.97998 34.2879 0.97998H3.3121C2.96664 0.97998 2.73634 1.21028 2.73634 1.55574V24.1254H0.95149C0.606035 24.1254 0.375732 24.3557 0.375732 24.7012C0.375732 27.3497 2.50604 29.4224 5.09694 29.4224H13.2151L14.7121 31.3224C15.4606 32.3012 16.5545 32.8194 17.8212 32.8194H25.3636C27.3788 32.8194 28.9909 31.3224 29.2212 29.3648H32.503C35.0939 29.3648 37.2242 27.2345 37.2242 24.6436C37.2242 24.3557 36.9939 24.1254 36.6485 24.1254ZM3.88785 2.1315H33.7121V24.1254H29.2212V19.6921C29.2212 18.0224 27.3788 16.7557 25.7091 17.7345C25.4212 15.8921 23.2333 15.3739 21.9666 16.3527C21.3909 15.3739 20.1242 14.7982 18.8 15.5467V11.6315C18.8 10.3648 17.7636 9.32847 16.4969 9.32847C15.2303 9.32847 14.1939 10.3648 14.1939 11.6315V22.1103C14.1363 22.0527 12.006 18.7709 9.0121 21.0739C8.20604 21.7073 8.03331 22.9164 8.66664 23.7224L9.0121 24.1254H3.88785V2.1315ZM5.09694 28.2709C3.3121 28.2709 1.81513 26.9467 1.52725 25.277H9.93331L12.2939 28.2709H5.09694ZM28.0697 28.9618C28.0697 30.4588 26.8606 31.7254 25.306 31.7254H17.8212C16.9576 31.7254 16.1515 31.3224 15.6333 30.6891L9.64543 22.9739C9.41513 22.6285 9.4727 22.1679 9.76058 21.9376C12.1788 20.0376 13.7909 23.6648 14.3666 24.1254C14.7121 24.586 15.403 24.2982 15.403 23.78V11.6315C15.403 10.9982 15.9212 10.48 16.5545 10.48C17.1879 10.48 17.706 10.9982 17.706 11.6315V20.3254C17.706 20.6709 17.9363 20.9012 18.2818 20.9012C18.6272 20.9012 18.8576 20.6709 18.8576 20.3254V17.5042C18.8576 15.9497 21.1606 15.9497 21.1606 17.5042V20.3254C21.1606 20.6709 21.3909 20.9012 21.7363 20.9012C22.0818 20.9012 22.3121 20.6709 22.3121 20.3254V18.1376C22.3121 16.583 24.6151 16.583 24.6151 18.1376V20.3254C24.6151 20.6709 24.8454 20.9012 25.1909 20.9012C25.5363 20.9012 25.7666 20.6709 25.7666 20.3254V19.6921C25.7666 18.1376 28.0697 18.2527 28.0697 19.6921V28.9618ZM32.503 28.2709H29.2788V25.277H36.0727C35.7272 27.0042 34.2879 28.2709 32.503 28.2709Z"/>
</mask>
<path d="M34.8636 24.1254H33.458V25.5311H34.8636V24.1254ZM2.73634 24.1254V25.5311H4.14196V24.1254H2.73634ZM13.2151 29.4224L14.3192 28.5525L13.8971 28.0168H13.2151V29.4224ZM14.7121 31.3224L15.8287 30.4686L15.8225 30.4605L15.8162 30.4525L14.7121 31.3224ZM29.2212 29.3648V27.9592H27.9712L27.8252 29.2006L29.2212 29.3648ZM3.88785 2.1315V0.725873H2.48223V2.1315H3.88785ZM33.7121 2.1315H35.1177V0.725873H33.7121V2.1315ZM33.7121 24.1254V25.5311H35.1177V24.1254H33.7121ZM29.2212 24.1254H27.8156V25.5311H29.2212V24.1254ZM25.7091 17.7345L24.3203 17.9515L24.639 19.9912L26.4199 18.9472L25.7091 17.7345ZM21.9666 16.3527L20.7551 17.0654L21.5639 18.4403L22.8261 17.465L21.9666 16.3527ZM18.8 15.5467H17.3944V17.9557L19.4916 16.7703L18.8 15.5467ZM14.1939 22.1103L13.2 23.1042L15.5995 25.5038V22.1103H14.1939ZM9.0121 21.0739L8.15507 19.9598L8.14935 19.9642L8.14367 19.9687L9.0121 21.0739ZM8.66664 23.7224L7.56138 24.5908L7.5799 24.6144L7.59941 24.6372L8.66664 23.7224ZM9.0121 24.1254V25.5311H12.0682L10.0793 23.2107L9.0121 24.1254ZM3.88785 24.1254H2.48223V25.5311H3.88785V24.1254ZM1.52725 25.277V23.8713H-0.141463L0.142063 25.5158L1.52725 25.277ZM9.93331 25.277L11.0371 24.4067L10.615 23.8713H9.93331V25.277ZM12.2939 28.2709V29.6765H15.1922L13.3977 27.4006L12.2939 28.2709ZM15.6333 30.6891L14.5229 31.5509L14.534 31.5652L14.5454 31.5792L15.6333 30.6891ZM9.64543 22.9739L8.47588 23.7536L8.50397 23.7958L8.53501 23.8357L9.64543 22.9739ZM9.76058 21.9376L8.89212 20.8323L8.8825 20.84L9.76058 21.9376ZM14.3666 24.1254L15.4911 23.2821L15.3841 23.1393L15.2447 23.0278L14.3666 24.1254ZM29.2788 28.2709H27.8731V29.6765H29.2788V28.2709ZM29.2788 25.277V23.8713H27.8731V25.277H29.2788ZM36.0727 25.277L37.451 25.5526L37.7873 23.8713H36.0727V25.277ZM36.6485 24.1254V22.7198H34.8636V24.1254V25.5311H36.6485V24.1254ZM34.8636 24.1254H36.2692V1.55574H34.8636H33.458V24.1254H34.8636ZM34.8636 1.55574H36.2692C36.2692 1.06359 36.0991 0.544234 35.6992 0.144389C35.2994 -0.255456 34.78 -0.425642 34.2879 -0.425642V0.97998V2.3856C34.1412 2.3856 33.9097 2.33057 33.7114 2.13224C33.513 1.93391 33.458 1.70244 33.458 1.55574H34.8636ZM34.2879 0.97998V-0.425642H3.3121V0.97998V2.3856H34.2879V0.97998ZM3.3121 0.97998V-0.425642C2.81994 -0.425642 2.30059 -0.255456 1.90075 0.144389C1.5009 0.544234 1.33072 1.06359 1.33072 1.55574H2.73634H4.14196C4.14196 1.70244 4.08693 1.93391 3.8886 2.13224C3.69027 2.33057 3.45879 2.3856 3.3121 2.3856V0.97998ZM2.73634 1.55574H1.33072V24.1254H2.73634H4.14196V1.55574H2.73634ZM2.73634 24.1254V22.7198H0.95149V24.1254V25.5311H2.73634V24.1254ZM0.95149 24.1254V22.7198C0.459338 22.7198 -0.0600147 22.89 -0.45986 23.2899C-0.859704 23.6897 -1.02989 24.209 -1.02989 24.7012H0.375732H1.78135C1.78135 24.8479 1.72632 25.0794 1.52799 25.2777C1.32966 25.476 1.09819 25.5311 0.95149 25.5311V24.1254ZM0.375732 24.7012H-1.02989C-1.02989 28.1371 1.74094 30.828 5.09694 30.828V29.4224V28.0168C3.27113 28.0168 1.78135 26.5622 1.78135 24.7012H0.375732ZM5.09694 29.4224V30.828H13.2151V29.4224V28.0168H5.09694V29.4224ZM13.2151 29.4224L12.111 30.2923L13.608 32.1923L14.7121 31.3224L15.8162 30.4525L14.3192 28.5525L13.2151 29.4224ZM14.7121 31.3224L13.5955 32.1763C14.6249 33.5224 16.1419 34.225 17.8212 34.225V32.8194V31.4138C16.9672 31.4138 16.2963 31.0801 15.8287 30.4686L14.7121 31.3224ZM17.8212 32.8194V34.225H25.3636V32.8194V31.4138H17.8212V32.8194ZM25.3636 32.8194V34.225C28.1137 34.225 30.3062 32.1723 30.6172 29.5291L29.2212 29.3648L27.8252 29.2006C27.6756 30.4725 26.6439 31.4138 25.3636 31.4138V32.8194ZM29.2212 29.3648V30.7705H32.503V29.3648V27.9592H29.2212V29.3648ZM32.503 29.3648V30.7705C35.8702 30.7705 38.6298 28.0108 38.6298 24.6436H37.2242H35.8186C35.8186 26.4582 34.3176 27.9592 32.503 27.9592V29.3648ZM37.2242 24.6436H38.6298C38.6298 23.4832 37.6703 22.7198 36.6485 22.7198V24.1254V25.5311C36.504 25.5311 36.2949 25.4789 36.1094 25.3066C35.9221 25.1327 35.8186 24.8883 35.8186 24.6436H37.2242ZM3.88785 2.1315V3.53712H33.7121V2.1315V0.725873H3.88785V2.1315ZM33.7121 2.1315H32.3065V24.1254H33.7121H35.1177V2.1315H33.7121ZM33.7121 24.1254V22.7198H29.2212V24.1254V25.5311H33.7121V24.1254ZM29.2212 24.1254H30.6268V19.6921H29.2212H27.8156V24.1254H29.2212ZM29.2212 19.6921H30.6268C30.6268 17.0186 27.6751 14.9527 24.9982 16.5219L25.7091 17.7345L26.4199 18.9472C26.7888 18.7309 27.1157 18.7735 27.3662 18.9243C27.645 19.0922 27.8156 19.3862 27.8156 19.6921H29.2212ZM25.7091 17.7345L27.0978 17.5175C26.8621 16.009 25.8188 15.0267 24.6338 14.6471C23.4924 14.2814 22.1389 14.4432 21.1072 15.2405L21.9666 16.3527L22.8261 17.465C23.061 17.2834 23.4348 17.2149 23.776 17.3243C24.0736 17.4196 24.2681 17.6176 24.3203 17.9515L25.7091 17.7345ZM21.9666 16.3527L23.1782 15.64C22.2678 14.0923 20.1894 13.1467 18.1083 14.323L18.8 15.5467L19.4916 16.7703C19.8302 16.5789 20.0774 16.5914 20.2457 16.6439C20.4401 16.7045 20.6298 16.8523 20.7551 17.0654L21.9666 16.3527ZM18.8 15.5467H20.2056V11.6315H18.8H17.3944V15.5467H18.8ZM18.8 11.6315H20.2056C20.2056 9.58853 18.5399 7.92284 16.4969 7.92284V9.32847V10.7341C16.9873 10.7341 17.3944 11.1411 17.3944 11.6315H18.8ZM16.4969 9.32847V7.92284C14.454 7.92284 12.7883 9.58853 12.7883 11.6315H14.1939H15.5995C15.5995 11.1411 16.0066 10.7341 16.4969 10.7341V9.32847ZM14.1939 11.6315H12.7883V22.1103H14.1939H15.5995V11.6315H14.1939ZM14.1939 22.1103L15.1878 21.1164C15.2309 21.1594 15.2613 21.1957 15.2702 21.2063C15.2831 21.2217 15.2927 21.2339 15.2972 21.2397C15.3024 21.2463 15.3061 21.2512 15.3079 21.2536C15.3098 21.2561 15.311 21.2577 15.3111 21.2579C15.3112 21.258 15.3101 21.2566 15.3065 21.2516C15.2954 21.2364 15.3067 21.2519 15.2934 21.2337C15.2712 21.2033 15.2368 21.1567 15.1928 21.0993C15.105 20.9848 14.98 20.8294 14.8206 20.6542C14.5076 20.3102 14.0356 19.8607 13.4189 19.4966C12.7967 19.1291 11.9901 18.8277 11.0422 18.851C10.081 18.8746 9.10481 19.2292 8.15507 19.9598L9.0121 21.0739L9.86912 22.1881C10.4163 21.7671 10.8291 21.6683 11.1113 21.6614C11.4067 21.6541 11.6976 21.7449 11.9894 21.9172C12.2867 22.0928 12.5452 22.3307 12.7414 22.5462C12.8365 22.6508 12.9108 22.7433 12.9622 22.8103C12.9878 22.8436 13.0081 22.8712 13.0249 22.8941C13.031 22.9024 13.0443 22.9206 13.0538 22.9335C13.0588 22.9402 13.0694 22.9544 13.0822 22.9708C13.0886 22.979 13.0999 22.9933 13.1142 23.0104C13.1245 23.0227 13.156 23.0602 13.2 23.1042L14.1939 22.1103ZM9.0121 21.0739L8.14367 19.9687C6.75678 21.0584 6.4255 23.1452 7.56138 24.5908L8.66664 23.7224L9.77191 22.854C9.71047 22.7758 9.67385 22.6609 9.69271 22.5205C9.71187 22.3779 9.78306 22.2558 9.88052 22.1792L9.0121 21.0739ZM8.66664 23.7224L7.59941 24.6372L7.94487 25.0402L9.0121 24.1254L10.0793 23.2107L9.73387 22.8076L8.66664 23.7224ZM9.0121 24.1254V22.7198H3.88785V24.1254V25.5311H9.0121V24.1254ZM3.88785 24.1254H5.29348V2.1315H3.88785H2.48223V24.1254H3.88785ZM5.09694 28.2709V26.8653C4.01037 26.8653 3.08648 26.0476 2.91243 25.0381L1.52725 25.277L0.142063 25.5158C0.543769 27.8457 2.61382 29.6765 5.09694 29.6765V28.2709ZM1.52725 25.277V26.6826H9.93331V25.277V23.8713H1.52725V25.277ZM9.93331 25.277L8.82952 26.1473L11.1901 29.1412L12.2939 28.2709L13.3977 27.4006L11.0371 24.4067L9.93331 25.277ZM12.2939 28.2709V26.8653H5.09694V28.2709V29.6765H12.2939V28.2709ZM28.0697 28.9618H26.6641C26.6641 29.7016 26.0653 30.3198 25.306 30.3198V31.7254V33.1311C27.6559 33.1311 29.4753 31.2159 29.4753 28.9618H28.0697ZM25.306 31.7254V30.3198H17.8212V31.7254V33.1311H25.306V31.7254ZM17.8212 31.7254V30.3198C17.3907 30.3198 16.9798 30.1151 16.7212 29.799L15.6333 30.6891L14.5454 31.5792C15.3232 32.5297 16.5244 33.1311 17.8212 33.1311V31.7254ZM15.6333 30.6891L16.7437 29.8273L10.7559 22.1121L9.64543 22.9739L8.53501 23.8357L14.5229 31.5509L15.6333 30.6891ZM9.64543 22.9739L10.815 22.1942C10.8898 22.3065 10.9205 22.4401 10.905 22.5737C10.8899 22.7047 10.8214 22.889 10.6387 23.0352L9.76058 21.9376L8.8825 20.84C7.94923 21.5866 7.89753 22.8861 8.47588 23.7536L9.64543 22.9739ZM9.76058 21.9376L10.629 23.0428C10.9817 22.7657 11.1497 22.7934 11.1973 22.801C11.3073 22.8186 11.5058 22.903 11.7944 23.1729C12.0765 23.4367 12.341 23.7787 12.6031 24.143C12.7174 24.3018 12.8636 24.5109 12.9752 24.6607C13.0677 24.785 13.2551 25.0363 13.4886 25.223L14.3666 24.1254L15.2447 23.0278C15.3343 23.0995 15.3453 23.1367 15.23 22.9818C15.1338 22.8526 15.0407 22.7175 14.8851 22.5012C14.6074 22.1152 14.2098 21.5827 13.7146 21.1196C13.226 20.6627 12.5321 20.1677 11.6417 20.0251C10.6889 19.8726 9.74859 20.1594 8.89216 20.8323L9.76058 21.9376ZM14.3666 24.1254L13.2421 24.9688C13.8307 25.7535 14.771 25.9061 15.4983 25.6395C16.183 25.3884 16.8086 24.7143 16.8086 23.78H15.403H13.9974C13.9974 23.3639 14.2776 23.0928 14.5305 23.0001C14.6673 22.9499 14.842 22.9295 15.0304 22.9789C15.2313 23.0315 15.3915 23.1492 15.4911 23.2821L14.3666 24.1254ZM15.403 23.78H16.8086V11.6315H15.403H13.9974V23.78H15.403ZM15.403 11.6315H16.8086C16.8086 11.7745 16.6975 11.8856 16.5545 11.8856V10.48V9.07436C15.1449 9.07436 13.9974 10.2219 13.9974 11.6315H15.403ZM16.5545 10.48V11.8856C16.4116 11.8856 16.3004 11.7745 16.3004 11.6315H17.706H19.1117C19.1117 10.2219 17.9642 9.07436 16.5545 9.07436V10.48ZM17.706 11.6315H16.3004V20.3254H17.706H19.1117V11.6315H17.706ZM17.706 20.3254H16.3004C16.3004 20.8176 16.4706 21.3369 16.8704 21.7368C17.2703 22.1366 17.7896 22.3068 18.2818 22.3068V20.9012V19.4956C18.4285 19.4956 18.66 19.5506 18.8583 19.7489C19.0566 19.9473 19.1117 20.1787 19.1117 20.3254H17.706ZM18.2818 20.9012V22.3068C18.7739 22.3068 19.2933 22.1366 19.6931 21.7368C20.093 21.3369 20.2632 20.8176 20.2632 20.3254H18.8576H17.4519C17.4519 20.1787 17.507 19.9473 17.7053 19.7489C17.9036 19.5506 18.1351 19.4956 18.2818 19.4956V20.9012ZM18.8576 20.3254H20.2632V17.5042H18.8576H17.4519V20.3254H18.8576ZM18.8576 17.5042H20.2632C20.2632 17.4859 20.2659 17.5075 20.2468 17.5517C20.2276 17.5961 20.1965 17.6397 20.1577 17.6746C20.0852 17.7398 20.0254 17.7439 20.0091 17.7439C19.9927 17.7439 19.9329 17.7398 19.8604 17.6746C19.8217 17.6397 19.7905 17.5961 19.7713 17.5517C19.7522 17.5075 19.755 17.4859 19.755 17.5042H21.1606H22.5662C22.5662 16.7402 22.2699 16.061 21.741 15.585C21.2368 15.1312 20.6012 14.9327 20.0091 14.9327C19.4169 14.9327 18.7814 15.1312 18.2771 15.585C17.7482 16.061 17.4519 16.7402 17.4519 17.5042H18.8576ZM21.1606 17.5042H19.755V20.3254H21.1606H22.5662V17.5042H21.1606ZM21.1606 20.3254H19.755C19.755 20.8176 19.9251 21.3369 20.325 21.7368C20.7248 22.1366 21.2442 22.3068 21.7363 22.3068V20.9012V19.4956C21.883 19.4956 22.1145 19.5506 22.3128 19.7489C22.5112 19.9473 22.5662 20.1787 22.5662 20.3254H21.1606ZM21.7363 20.9012V22.3068C22.2285 22.3068 22.7478 22.1366 23.1477 21.7368C23.5475 21.3369 23.7177 20.8176 23.7177 20.3254H22.3121H20.9065C20.9065 20.1787 20.9615 19.9473 21.1598 19.7489C21.3582 19.5506 21.5896 19.4956 21.7363 19.4956V20.9012ZM22.3121 20.3254H23.7177V18.1376H22.3121H20.9065V20.3254H22.3121ZM22.3121 18.1376H23.7177C23.7177 18.1193 23.7205 18.1408 23.7014 18.185C23.6822 18.2295 23.651 18.273 23.6123 18.3079C23.5398 18.3731 23.48 18.3773 23.4636 18.3773C23.4472 18.3773 23.3874 18.3731 23.315 18.3079C23.2762 18.273 23.2451 18.2295 23.2259 18.185C23.2068 18.1408 23.2095 18.1193 23.2095 18.1376H24.6151H26.0208C26.0208 17.3736 25.7244 16.6943 25.1956 16.2183C24.6913 15.7645 24.0557 15.566 23.4636 15.566C22.8715 15.566 22.2359 15.7645 21.7316 16.2183C21.2028 16.6943 20.9065 17.3736 20.9065 18.1376H22.3121ZM24.6151 18.1376H23.2095V20.3254H24.6151H26.0208V18.1376H24.6151ZM24.6151 20.3254H23.2095C23.2095 20.8176 23.3797 21.3369 23.7795 21.7368C24.1794 22.1366 24.6987 22.3068 25.1909 22.3068V20.9012V19.4956C25.3376 19.4956 25.5691 19.5506 25.7674 19.7489C25.9657 19.9473 26.0208 20.1787 26.0208 20.3254H24.6151ZM25.1909 20.9012V22.3068C25.683 22.3068 26.2024 22.1366 26.6022 21.7368C27.0021 21.3369 27.1723 20.8176 27.1723 20.3254H25.7666H24.361C24.361 20.1787 24.4161 19.9473 24.6144 19.7489C24.8127 19.5506 25.0442 19.4956 25.1909 19.4956V20.9012ZM25.7666 20.3254H27.1723V19.6921H25.7666H24.361V20.3254H25.7666ZM25.7666 19.6921H27.1723C27.1723 19.6736 27.1751 19.701 27.1517 19.7539C27.128 19.8076 27.0895 19.8596 27.042 19.9005C26.9529 19.977 26.8849 19.9746 26.883 19.9746C26.8815 19.9745 26.8432 19.9757 26.7842 19.9241C26.7508 19.8949 26.7165 19.8524 26.6922 19.7991C26.6673 19.7446 26.6641 19.7035 26.6641 19.6921H28.0697H29.4753C29.4753 18.0114 28.0763 17.1923 26.9533 17.1642C26.3756 17.1498 25.7319 17.3201 25.211 17.7673C24.6602 18.24 24.361 18.9259 24.361 19.6921H25.7666ZM28.0697 19.6921H26.6641V28.9618H28.0697H29.4753V19.6921H28.0697ZM32.503 28.2709V26.8653H29.2788V28.2709V29.6765H32.503V28.2709ZM29.2788 28.2709H30.6844V25.277H29.2788H27.8731V28.2709H29.2788ZM29.2788 25.277V26.6826H36.0727V25.277V23.8713H29.2788V25.277ZM36.0727 25.277L34.6944 25.0013C34.4716 26.1151 33.5744 26.8653 32.503 26.8653V28.2709V29.6765C35.0013 29.6765 36.9829 27.8934 37.451 25.5526L36.0727 25.277Z" fill="#D17C51" mask="url(#path-1-inside-1_2673_10023)"/>
</svg>
