<svg width="16" height="18" viewBox="0 0 16 18" fill="none" xmlns="http://www.w3.org/2000/svg">
<path d="M4.26855 4.69244C4.26855 5.08458 4.42433 5.46066 4.70162 5.73795C4.9789 6.01523 5.35498 6.17101 5.74713 6.17101C6.13927 6.17101 6.51535 6.01523 6.79263 5.73795C7.06992 5.46066 7.2257 5.08458 7.2257 4.69244C7.2257 4.3003 7.06992 3.92422 6.79263 3.64693C6.51535 3.36964 6.13927 3.21387 5.74713 3.21387C5.35498 3.21387 4.9789 3.36964 4.70162 3.64693C4.42433 3.92422 4.26855 4.3003 4.26855 4.69244Z" stroke="white" stroke-linecap="round" stroke-linejoin="round"/>
<path d="M3.5 7.63697C3.72195 7.20285 4.05236 6.83347 4.45914 6.56469C4.85257 6.30754 5.29743 6.17383 5.74871 6.17383C6.2 6.17383 6.64486 6.30754 7.03829 6.56469C7.433 6.82054 7.76214 7.18954 7.99743 7.63697" stroke="white" stroke-linecap="round" stroke-linejoin="round"/>
<path d="M15.0716 16.0711C15.0716 16.4121 14.9361 16.7392 14.695 16.9803C14.4539 17.2214 14.1268 17.3569 13.7859 17.3569H2.21443C1.87343 17.3569 1.54641 17.2214 1.30529 16.9803C1.06417 16.7392 0.928711 16.4121 0.928711 16.0711V1.92829C0.928711 1.5873 1.06417 1.26027 1.30529 1.01916C1.54641 0.778037 1.87343 0.642578 2.21443 0.642578H10.5716L15.0716 5.14258V16.0711Z" stroke="white" stroke-linecap="round" stroke-linejoin="round"/>
<path d="M3.5 10.9287H12.5M3.5 14.143H8.64286" stroke="white" stroke-linecap="round"/>
</svg>
