<svg width="18" height="18" viewBox="0 0 18 18" fill="none" xmlns="http://www.w3.org/2000/svg">
<g clip-path="url(#clip0_281_3581)">
<path d="M5.97676 8.55316C5.88139 8.23394 5.81598 7.90653 5.78138 7.57516C5.762 7.41571 5.68449 7.269 5.56368 7.16313C5.44287 7.05727 5.28725 6.99969 5.12663 7.00141H3.58876C3.49535 7.00166 3.40303 7.02141 3.31769 7.05938C3.23235 7.09735 3.15587 7.15271 3.09315 7.22193C3.03043 7.29114 2.98285 7.37268 2.95344 7.46134C2.92404 7.54999 2.91346 7.64381 2.92238 7.73679C3.27863 11.7133 6.42976 14.8648 10.4059 15.2218C10.4988 15.2308 10.5925 15.2203 10.6811 15.191C10.7697 15.1617 10.8512 15.1142 10.9204 15.0517C10.9897 14.9891 11.0451 14.9128 11.0832 14.8276C11.1213 14.7424 11.1412 14.6502 11.1416 14.5569V13.1852C11.1416 12.6845 10.8964 12.3969 10.566 12.3632C10.2351 12.3279 9.90818 12.2618 9.58951 12.1659C9.40055 12.11 9.19999 12.1064 9.00911 12.1553C8.81823 12.2042 8.64416 12.3039 8.50538 12.4438L7.84763 13.1015C6.65984 12.458 5.68486 11.4829 5.04151 10.295L5.70001 9.63729C5.83956 9.49838 5.93894 9.32431 5.98759 9.13351C6.03625 8.94272 6.03237 8.74231 5.97638 8.55354M13.2761 5.72979C13.2758 5.82806 13.2366 5.9222 13.167 5.99158C13.0974 6.06096 13.0031 6.09991 12.9049 6.09991H12.9034C12.8051 6.10031 12.7107 6.06174 12.6408 5.99264C12.571 5.92354 12.5313 5.82956 12.5306 5.73129C12.531 5.63309 12.5703 5.53904 12.6399 5.46974C12.7095 5.40045 12.8037 5.36154 12.9019 5.36154H12.9034C13.1093 5.36154 13.2761 5.52654 13.2761 5.72979ZM10.0489 5.72979C10.0486 5.82806 10.0093 5.9222 9.93975 5.99158C9.87016 6.06096 9.7759 6.09991 9.67763 6.09991H9.67463C9.57636 6.10031 9.48194 6.06174 9.41207 5.99264C9.3422 5.92354 9.30258 5.82956 9.30188 5.73129C9.30228 5.63309 9.34157 5.53904 9.41115 5.46974C9.48073 5.40045 9.57493 5.36154 9.67313 5.36154H9.67463C9.7729 5.36074 9.86748 5.39893 9.93763 5.46775C10.0078 5.53657 10.0478 5.6304 10.0489 5.72866V5.72979ZM9.49313 7.10604C9.69038 8.00604 10.4329 8.64241 11.289 8.64241C12.1451 8.64241 12.8876 8.00491 13.0849 7.10604H9.49313ZM14.3306 6.53941C14.3306 6.87954 14.325 7.05504 14.2343 7.51029C14.0895 8.23291 13.5581 9.53529 11.4094 11.2873C11.8234 10.3205 11.5868 9.72091 10.6568 9.48729C9.29326 9.14566 8.24738 7.98916 8.24738 6.53904C8.24738 4.87404 9.60938 3.52441 11.289 3.52441C12.9686 3.52441 14.3306 4.87366 14.3306 6.53941Z" stroke="white" stroke-width="0.9" stroke-linecap="round" stroke-linejoin="round"/>
<path d="M9 17.0625C13.4528 17.0625 17.0625 13.4528 17.0625 9C17.0625 4.5472 13.4528 0.9375 9 0.9375C4.5472 0.9375 0.9375 4.5472 0.9375 9C0.9375 13.4528 4.5472 17.0625 9 17.0625Z" stroke="white" stroke-width="0.9" stroke-linecap="round" stroke-linejoin="round"/>
</g>
<defs>
<clipPath id="clip0_281_3581">
<rect width="18" height="18" fill="white"/>
</clipPath>
</defs>
</svg>
