<svg width="18" height="18" viewBox="0 0 18 18" fill="none" xmlns="http://www.w3.org/2000/svg">
<path d="M15.75 11.6594C15.3578 11.6594 14.9656 11.7729 14.625 12C13.9438 12.4542 13.0562 12.4542 12.375 12C11.6938 11.5458 10.8062 11.5458 10.125 12C9.44375 12.4542 8.55625 12.4542 7.875 12C7.19375 11.5458 6.30625 11.5458 5.625 12C4.94375 12.4542 4.05625 12.4542 3.375 12C3.03438 11.7729 2.64219 11.6594 2.25 11.6594M6.75 4.5V6M9 4.5V6M11.25 4.5V6M6.75 2.25H6.7575M9 2.25H9.0075M11.25 2.25H11.2575M15.75 15.75V10.5C15.75 9.67157 15.0784 9 14.25 9H3.75C2.92157 9 2.25 9.67157 2.25 10.5V15.75H15.75ZM13.5 9V7.5C13.5 6.67157 12.8284 6 12 6H6C5.17157 6 4.5 6.67157 4.5 7.5V9H13.5Z" stroke="white" stroke-linecap="round" stroke-linejoin="round"/>
</svg>
