<svg width="24" height="24" viewBox="0 0 24 24" fill="none" xmlns="http://www.w3.org/2000/svg">
<path d="M11.8187 3C17.2108 3 21.6968 6.87976 22.6373 12C21.6968 17.1202 17.2108 21 11.8187 21C6.42648 21 1.94051 17.1202 1 12C1.94051 6.87976 6.42648 3 11.8187 3ZM11.8187 19C16.0543 19 19.6787 16.052 20.5961 12C19.6787 7.94803 16.0543 5 11.8187 5C7.58296 5 3.95858 7.94803 3.04114 12C3.95858 16.052 7.58296 19 11.8187 19ZM11.8187 16.5C9.33334 16.5 7.31862 14.4853 7.31862 12C7.31862 9.51472 9.33334 7.5 11.8187 7.5C14.3039 7.5 16.3187 9.51472 16.3187 12C16.3187 14.4853 14.3039 16.5 11.8187 16.5ZM11.8187 14.5C13.1994 14.5 14.3187 13.3807 14.3187 12C14.3187 10.6193 13.1994 9.5 11.8187 9.5C10.438 9.5 9.31862 10.6193 9.31862 12C9.31862 13.3807 10.438 14.5 11.8187 14.5Z" fill="#B7B7B7"/>
</svg>
