<svg width="23" height="21" viewBox="0 0 23 21" fill="none" xmlns="http://www.w3.org/2000/svg">
<path d="M16.0318 11.3L14.5775 9.85C14.7279 9.06667 14.5022 8.33334 13.9005 7.65C13.2987 6.96667 12.5213 6.7 11.5685 6.85L10.1142 5.4C10.3984 5.26667 10.6867 5.16667 10.9793 5.1C11.2718 5.03334 11.5852 5 11.9196 5C13.1733 5 14.239 5.4375 15.1166 6.3125C15.9942 7.1875 16.433 8.25 16.433 9.5C16.433 9.83334 16.3996 10.1458 16.3327 10.4375C16.2658 10.7292 16.1655 11.0167 16.0318 11.3ZM19.2413 14.45L17.787 13.05C18.4222 12.5667 18.9864 12.0375 19.4796 11.4625C19.9727 10.8875 20.3948 10.2333 20.7458 9.5C19.91 7.81667 18.7106 6.47917 17.1476 5.4875C15.5846 4.49584 13.8419 4 11.9196 4C11.4348 4 10.9584 4.03334 10.4903 4.1C10.0222 4.16667 9.56254 4.26667 9.1112 4.4L7.55657 2.85C8.24194 2.56667 8.94403 2.35417 9.66284 2.2125C10.3816 2.07084 11.1339 2 11.9196 2C14.4437 2 16.6921 2.69584 18.6646 4.0875C20.6372 5.47917 22.0664 7.28334 22.9524 9.5C22.5679 10.4833 22.0622 11.3958 21.4354 12.2375C20.8085 13.0792 20.0772 13.8167 19.2413 14.45ZM19.7428 20.6L15.5303 16.45C14.9452 16.6333 14.356 16.7708 13.7625 16.8625C13.1691 16.9542 12.5548 17 11.9196 17C9.39538 17 7.14702 16.3042 5.17448 14.9125C3.20194 13.5208 1.77269 11.7167 0.886719 9.5C1.23776 8.61667 1.68075 7.79584 2.21567 7.0375C2.7506 6.27917 3.36075 5.6 4.04612 5L1.28791 2.2L2.69209 0.800003L21.147 19.2L19.7428 20.6ZM5.4503 6.4C4.96553 6.83334 4.52254 7.30834 4.12135 7.825C3.72015 8.34167 3.37747 8.9 3.09329 9.5C3.92911 11.1833 5.12851 12.5208 6.69149 13.5125C8.25448 14.5042 9.99717 15 11.9196 15C12.2539 15 12.5799 14.9792 12.8975 14.9375C13.2151 14.8958 13.541 14.85 13.8754 14.8L12.9727 13.85C12.7888 13.9 12.6133 13.9375 12.4461 13.9625C12.279 13.9875 12.1034 14 11.9196 14C10.6658 14 9.60015 13.5625 8.72254 12.6875C7.84493 11.8125 7.40612 10.75 7.40612 9.5C7.40612 9.31667 7.41866 9.14167 7.44373 8.975C7.46881 8.80834 7.50642 8.63334 7.55657 8.45L5.4503 6.4Z" fill="#FEFEFE"/>
</svg>
