<svg width="24" height="24" viewBox="0 0 24 24" fill="none" xmlns="http://www.w3.org/2000/svg">
<path fill-rule="evenodd" clip-rule="evenodd" d="M15.2222 3C16.1915 3 17.1236 3.3287 17.8259 3.9181C18.5282 4.50751 18.9468 5.31253 18.9953 6.16667L19 6.33333V14.6667C19 15.5219 18.6275 16.3444 17.9595 16.964C17.2915 17.5837 16.3791 17.9531 15.4111 17.9958L15.2222 18H5.77778C4.80855 18 3.8764 17.6713 3.17412 17.0819C2.47185 16.4925 2.05318 15.6875 2.00472 14.8333L2 14.6667V6.33333C2 5.47813 2.37252 4.65564 3.04052 4.03599C3.70851 3.41634 4.62087 3.04693 5.58889 3.00417L5.77778 3H15.2222ZM10.0278 13C9.65205 13 9.29172 13.1317 9.02604 13.3661C8.76037 13.6005 8.61111 13.9185 8.61111 14.25C8.61111 14.5815 8.76037 14.8995 9.02604 15.1339C9.29172 15.3683 9.65205 15.5 10.0278 15.5C10.4035 15.5 10.7638 15.3683 11.0295 15.1339C11.2952 14.8995 11.4444 14.5815 11.4444 14.25C11.4444 13.9185 11.2952 13.6005 11.0295 13.3661C10.7638 13.1317 10.4035 13 10.0278 13ZM10.9722 9.25H7.19444C6.83063 9.25016 6.48083 9.37381 6.21752 9.59534C5.95422 9.81687 5.7976 10.1193 5.78012 10.4399C5.76263 10.7606 5.88563 11.0749 6.12361 11.3177C6.36159 11.5605 6.69633 11.7132 7.05844 11.7442L7.19444 11.75H10.9722C11.336 11.7498 11.6858 11.6262 11.9491 11.4047C12.2124 11.1831 12.3691 10.8807 12.3865 10.5601C12.404 10.2394 12.281 9.92514 12.0431 9.68233C11.8051 9.43952 11.4703 9.28681 11.1082 9.25583L10.9722 9.25ZM13.8056 5.5H8.13889C7.76317 5.5 7.40283 5.6317 7.13715 5.86612C6.87148 6.10054 6.72222 6.41848 6.72222 6.75C6.72222 7.08152 6.87148 7.39946 7.13715 7.63388C7.40283 7.8683 7.76317 8 8.13889 8H13.8056C14.1813 8 14.5416 7.8683 14.8073 7.63388C15.073 7.39946 15.2222 7.08152 15.2222 6.75C15.2222 6.41848 15.073 6.10054 14.8073 5.86612C14.5416 5.6317 14.1813 5.5 13.8056 5.5Z" fill="#4A4A4A"/>
</svg>
