<svg width="18" height="18" viewBox="0 0 18 18" fill="none" xmlns="http://www.w3.org/2000/svg">
<path d="M14.25 2.25L10.5 6M14.25 2.25H11.25M14.25 2.25V5.25M8.25 12V16.5M6 14.25H10.5M5.25 8.25C5.25 9.04565 5.56607 9.80871 6.12868 10.3713C6.69129 10.9339 7.45435 11.25 8.25 11.25C9.04565 11.25 9.80871 10.9339 10.3713 10.3713C10.9339 9.80871 11.25 9.04565 11.25 8.25C11.25 7.45435 10.9339 6.69129 10.3713 6.12868C9.80871 5.56607 9.04565 5.25 8.25 5.25C7.45435 5.25 6.69129 5.56607 6.12868 6.12868C5.56607 6.69129 5.25 7.45435 5.25 8.25Z" stroke="white" stroke-linecap="round" stroke-linejoin="round"/>
</svg>
