<svg width="16" height="16" viewBox="0 0 16 16" fill="none" xmlns="http://www.w3.org/2000/svg">
<g clip-path="url(#clip0_1059_6127)">
<path d="M8 0C10.7615 0 13 2.2385 13 5C13 7.7615 10.7615 10 8 10C5.2385 10 3 7.7615 3 5C3 2.2385 5.2385 0 8 0ZM8 1C6.93913 1 5.92172 1.42143 5.17157 2.17157C4.42143 2.92172 4 3.93913 4 5C4 6.06087 4.42143 7.07828 5.17157 7.82843C5.92172 8.57857 6.93913 9 8 9C9.06087 9 10.0783 8.57857 10.8284 7.82843C11.5786 7.07828 12 6.06087 12 5C12 3.93913 11.5786 2.92172 10.8284 2.17157C10.0783 1.42143 9.06087 1 8 1Z" fill="white"/>
<path d="M4.20024 9.644C4.44657 9.84533 4.70757 10.0265 4.98324 10.1875L3.63024 11.841C3.91352 12.2396 4.04095 12.7282 3.98844 13.2143C3.93594 13.7005 3.70713 14.1506 3.34528 14.4795C2.98342 14.8085 2.5136 14.9934 2.02463 14.9994C1.53566 15.0055 1.06143 14.8321 0.691587 14.5122C0.321745 14.1923 0.0819226 13.748 0.0174591 13.2632C-0.0470043 12.7785 0.0683584 12.2869 0.341738 11.8815C0.615117 11.476 1.02757 11.1848 1.50112 11.0628C1.97467 10.9408 2.4765 10.9966 2.91174 11.2195L4.20024 9.644ZM11.8002 9.644L13.0887 11.219C13.524 10.9961 14.0258 10.9403 14.4994 11.0623C14.9729 11.1843 15.3854 11.4755 15.6587 11.881C15.9321 12.2864 16.0475 12.778 15.983 13.2627C15.9185 13.7475 15.6787 14.1918 15.3089 14.5117C14.939 14.8316 14.4648 15.005 13.9758 14.9989C13.4869 14.9929 13.017 14.808 12.6552 14.479C12.2933 14.1501 12.0645 13.7 12.012 13.2138C11.9595 12.7277 12.087 12.2391 12.3702 11.8405L11.0172 10.1875C11.2921 10.0274 11.5542 9.84562 11.8002 9.644ZM2.00024 12C1.73502 12 1.48067 12.1054 1.29313 12.2929C1.10559 12.4804 1.00024 12.7348 1.00024 13C1.00024 13.2652 1.10559 13.5196 1.29313 13.7071C1.48067 13.8946 1.73502 14 2.00024 14C2.26545 14 2.51981 13.8946 2.70734 13.7071C2.89488 13.5196 3.00024 13.2652 3.00024 13C3.00024 12.7348 2.89488 12.4804 2.70734 12.2929C2.51981 12.1054 2.26545 12 2.00024 12ZM14.0002 12C13.735 12 13.4807 12.1054 13.2931 12.2929C13.1056 12.4804 13.0002 12.7348 13.0002 13C13.0002 13.2652 13.1056 13.5196 13.2931 13.7071C13.4807 13.8946 13.735 14 14.0002 14C14.2655 14 14.5198 13.8946 14.7073 13.7071C14.8949 13.5196 15.0002 13.2652 15.0002 13C15.0002 12.7348 14.8949 12.4804 14.7073 12.2929C14.5198 12.1054 14.2655 12 14.0002 12ZM8.50024 3V4.5H10.0002V5.5H8.50024V7H7.50024V5.5H6.00024V4.5H7.50024V3H8.50024Z" fill="white"/>
</g>
<defs>
<clipPath id="clip0_1059_6127">
<rect width="16" height="16" fill="white"/>
</clipPath>
</defs>
</svg>
