<svg width="8" height="12" viewBox="0 0 8 12" fill="none" xmlns="http://www.w3.org/2000/svg">
<path d="M4 0C1.79093 0 0 1.76274 0 3.93703C0 5.67064 2.5432 9.47853 3.57387 10.951C3.8064 11.283 4.1936 11.283 4.42613 10.951C5.4568 9.47827 8 5.6709 8 3.93703C8 1.76274 6.20907 0 4 0ZM4 1.83728C4.5658 1.83728 5.10842 2.0585 5.50849 2.45228C5.90857 2.84606 6.13333 3.38014 6.13333 3.93703C6.13333 4.21277 6.07815 4.48582 5.97094 4.74057C5.86373 4.99532 5.70659 5.2268 5.50849 5.42178C5.3104 5.61676 5.07522 5.77143 4.81639 5.87695C4.55756 5.98247 4.28015 6.03678 4 6.03678C3.4342 6.03678 2.89158 5.81556 2.49151 5.42178C2.09143 5.028 1.86667 4.49392 1.86667 3.93703C1.86667 3.38014 2.09143 2.84606 2.49151 2.45228C2.89158 2.0585 3.4342 1.83728 4 1.83728Z" fill="white"/>
</svg>
