<svg width="20" height="21" viewBox="0 0 20 21" fill="none" xmlns="http://www.w3.org/2000/svg">
<path d="M19.4 12.75L12.25 19.9C12.05 20.1 11.825 20.25 11.575 20.35C11.325 20.45 11.075 20.5 10.825 20.5C10.575 20.5 10.325 20.45 10.075 20.35C9.825 20.25 9.6 20.1 9.4 19.9L0.575 11.075C0.391667 10.8917 0.25 10.6793 0.15 10.438C0.0500001 10.1967 0 9.94233 0 9.675V2.5C0 1.95 0.196 1.47933 0.588 1.088C0.98 0.696667 1.45067 0.500667 2 0.5H9.175C9.44167 0.5 9.7 0.554333 9.95 0.663C10.2 0.771667 10.4167 0.917333 10.6 1.1L19.4 9.925C19.6 10.125 19.746 10.35 19.838 10.6C19.93 10.85 19.9757 11.1 19.975 11.35C19.9743 11.6 19.9287 11.846 19.838 12.088C19.7473 12.33 19.6013 12.5507 19.4 12.75ZM4.5 6.5C4.91667 6.5 5.271 6.35433 5.563 6.063C5.855 5.77167 6.00067 5.41733 6 5C5.99933 4.58267 5.85367 4.22867 5.563 3.938C5.27233 3.64733 4.918 3.50133 4.5 3.5C4.082 3.49867 3.728 3.64467 3.438 3.938C3.148 4.23133 3.002 4.58533 3 5C2.998 5.41467 3.144 5.769 3.438 6.063C3.732 6.357 4.086 6.50267 4.5 6.5ZM11 16L14.5 12.5C14.6833 12.3167 14.8293 12.1 14.938 11.85C15.0467 11.6 15.1007 11.3333 15.1 11.05C15.1 10.4833 14.9 10 14.5 9.6C14.1 9.2 13.6167 9 13.05 9C12.7333 9 12.421 9.09167 12.113 9.275C11.805 9.45833 11.434 9.76667 11 10.2C10.5 9.73333 10.1083 9.41667 9.825 9.25C9.54167 9.08333 9.25 9 8.95 9C8.38333 9 7.9 9.2 7.5 9.6C7.1 10 6.9 10.4833 6.9 11.05C6.9 11.3333 6.95433 11.6 7.063 11.85C7.17167 12.1 7.31733 12.3167 7.5 12.5L11 16Z" fill="#4A4A4A"/>
</svg>
