<svg width="38" height="33" viewBox="0 0 38 33" fill="none" xmlns="http://www.w3.org/2000/svg">
<path d="M36.9061 20.2125L23.3041 32.01C22.9236 32.34 22.4956 32.5875 22.02 32.7525C21.5444 32.9175 21.0688 33 20.5932 33C20.1176 33 19.642 32.9175 19.1665 32.7525C18.6909 32.5875 18.2628 32.34 17.8823 32.01L1.09387 17.4487C0.745098 17.1462 0.475594 16.7959 0.285357 16.3977C0.095119 15.9995 0 15.5799 0 15.1388V3.3C0 2.3925 0.372866 1.6159 1.1186 0.9702C1.86433 0.3245 2.75972 0.0011 3.80475 0H17.4543C17.9616 0 18.4531 0.0896502 18.9287 0.26895C19.4042 0.44825 19.8164 0.6886 20.1652 0.99L36.9061 15.5513C37.2866 15.8813 37.5643 16.2525 37.7394 16.665C37.9144 17.0775 38.0013 17.49 38 17.9025C37.9987 18.315 37.9118 18.7209 37.7394 19.1202C37.5669 19.5195 37.2891 19.8836 36.9061 20.2125ZM8.5607 9.9C9.35335 9.9 10.0274 9.65965 10.5829 9.17895C11.1384 8.69825 11.4155 8.1136 11.4143 7.425C11.413 6.7364 11.1359 6.1523 10.5829 5.6727C10.03 5.1931 9.35589 4.9522 8.5607 4.95C7.7655 4.9478 7.09206 5.1887 6.54037 5.6727C5.98868 6.1567 5.71094 6.7408 5.70713 7.425C5.70333 8.1092 5.98107 8.69385 6.54037 9.17895C7.09967 9.66405 7.77311 9.9044 8.5607 9.9ZM20.9261 25.575L27.5845 19.8C27.9332 19.4975 28.211 19.14 28.4177 18.7275C28.6244 18.315 28.7272 17.875 28.7259 17.4075C28.7259 16.4725 28.3454 15.675 27.5845 15.015C26.8235 14.355 25.904 14.025 24.826 14.025C24.2236 14.025 23.6294 14.1762 23.0435 14.4787C22.4576 14.7812 21.7518 15.29 20.9261 16.005C19.975 15.235 19.2299 14.7125 18.6909 14.4375C18.1518 14.1625 17.597 14.025 17.0263 14.025C15.9483 14.025 15.0288 14.355 14.2678 15.015C13.5069 15.675 13.1264 16.4725 13.1264 17.4075C13.1264 17.875 13.2298 18.315 13.4365 18.7275C13.6432 19.14 13.9203 19.4975 14.2678 19.8L20.9261 25.575Z" fill="#D17C51"/>
</svg>
