<svg width="34" height="33" viewBox="0 0 34 33" fill="none" xmlns="http://www.w3.org/2000/svg">
<path d="M17.2428 5.43049C16.1627 5.43049 15.1268 5.85958 14.363 6.62336C13.5992 7.38715 13.1701 8.42306 13.1701 9.50322C13.1701 11.1825 14.2317 12.8944 15.5296 14.3145C16.1486 14.9905 16.7704 15.5472 17.2428 15.9368C17.8495 15.4348 18.4218 14.8929 18.9561 14.3145C20.2539 12.8944 21.3156 11.1839 21.3156 9.50322C21.3156 8.42306 20.8865 7.38715 20.1227 6.62336C19.3589 5.85958 18.323 5.43049 17.2428 5.43049ZM17.2428 19.2968L16.4731 18.7673L16.4704 18.7646L16.4649 18.7619L16.4486 18.7497L16.393 18.709L16.1975 18.5678C15.2352 17.8433 14.3409 17.0327 13.5258 16.1458C12.1085 14.5955 10.4549 12.236 10.4549 9.50322C10.4549 7.70296 11.1701 5.97643 12.4431 4.70346C13.716 3.43048 15.4426 2.71533 17.2428 2.71533C19.0431 2.71533 20.7696 3.43048 22.0426 4.70346C23.3156 5.97643 24.0307 7.70296 24.0307 9.50322C24.0307 12.2347 22.3772 14.5968 20.9599 16.1458C20.0895 17.0916 19.1293 17.9505 18.0927 18.7103L18.0384 18.7497L18.0207 18.7619L18.0153 18.7646L18.0139 18.766L17.2428 19.2968ZM17.2428 9.84261C17.3328 9.84261 17.4192 9.80686 17.4828 9.74321C17.5465 9.67956 17.5822 9.59323 17.5822 9.50322C17.5822 9.41321 17.5465 9.32688 17.4828 9.26323C17.4192 9.19958 17.3328 9.16383 17.2428 9.16383C17.1528 9.16383 17.0665 9.19958 17.0028 9.26323C16.9392 9.32688 16.9034 9.41321 16.9034 9.50322C16.9034 9.59323 16.9392 9.67956 17.0028 9.74321C17.0665 9.80686 17.1528 9.84261 17.2428 9.84261ZM14.8671 9.50322C14.8671 8.87313 15.1174 8.26884 15.5629 7.8233C16.0085 7.37776 16.6127 7.12746 17.2428 7.12746C17.8729 7.12746 18.4772 7.37776 18.9227 7.8233C19.3683 8.26884 19.6186 8.87313 19.6186 9.50322C19.6186 10.1333 19.3683 10.7376 18.9227 11.1831C18.4772 11.6287 17.8729 11.879 17.2428 11.879C16.6127 11.879 16.0085 11.6287 15.5629 11.1831C15.1174 10.7376 14.8671 10.1333 14.8671 9.50322ZM3.66705 13.576H10.4549V16.2911H6.38221V25.0203L12.4085 18.4456L14.4096 20.281L8.1104 27.1517H20.3598L16.6849 22.9514L18.728 21.1635L19.9335 22.5414L26.1838 16.2911H24.0307V13.576H30.8186V29.8669H3.66705V13.576ZM28.1034 18.2107L21.7255 24.5886L23.9683 27.1517H28.1034V18.2107Z" fill="#D17C51"/>
</svg>
