<svg width="21" height="20" viewBox="0 0 21 20" fill="none" xmlns="http://www.w3.org/2000/svg">
<g clip-path="url(#clip0_522_7124)">
<path d="M11 7C11.1326 7 11.2598 6.94732 11.3536 6.85355C11.4473 6.75979 11.5 6.63261 11.5 6.5C11.5 6.36739 11.4473 6.24021 11.3536 6.14645C11.2598 6.05268 11.1326 6 11 6C10.8674 6 10.7402 6.05268 10.6464 6.14645C10.5527 6.24021 10.5 6.36739 10.5 6.5C10.5 6.63261 10.5527 6.75979 10.6464 6.85355C10.7402 6.94732 10.8674 7 11 7ZM10.5 10C10.5 9.86739 10.5527 9.74021 10.6464 9.64645C10.7402 9.55268 10.8674 9.5 11 9.5H14C14.1326 9.5 14.2598 9.55268 14.3536 9.64645C14.4473 9.74021 14.5 9.86739 14.5 10C14.5 10.1326 14.4473 10.2598 14.3536 10.3536C14.2598 10.4473 14.1326 10.5 14 10.5H11C10.8674 10.5 10.7402 10.4473 10.6464 10.3536C10.5527 10.2598 10.5 10.1326 10.5 10ZM11 13C10.8674 13 10.7402 13.0527 10.6464 13.1464C10.5527 13.2402 10.5 13.3674 10.5 13.5C10.5 13.6326 10.5527 13.7598 10.6464 13.8536C10.7402 13.9473 10.8674 14 11 14H14C14.1326 14 14.2598 13.9473 14.3536 13.8536C14.4473 13.7598 14.5 13.6326 14.5 13.5C14.5 13.3674 14.4473 13.2402 14.3536 13.1464C14.2598 13.0527 14.1326 13 14 13H11ZM9.5 17H17.969C18.619 17.02 19.282 16.638 19.471 15.823L19.894 14H22C22.3978 14 22.7794 13.842 23.0607 13.5607C23.342 13.2794 23.5 12.8978 23.5 12.5V7.582C23.5 6.599 22.749 6.022 21.984 6H17.5V4.5C17.5 4.10218 17.342 3.72064 17.0607 3.43934C16.7794 3.15804 16.3978 3 16 3H9C8.60218 3 8.22064 3.15804 7.93934 3.43934C7.65804 3.72064 7.5 4.10218 7.5 4.5V15C7.5 15.5304 7.71071 16.0391 8.08579 16.4142C8.46086 16.7893 8.96957 17 9.5 17ZM8.5 4.5C8.5 4.36739 8.55268 4.24021 8.64645 4.14645C8.74021 4.05268 8.86739 4 9 4H16C16.1326 4 16.2598 4.05268 16.3536 4.14645C16.4473 4.24021 16.5 4.36739 16.5 4.5V15.482C16.5013 15.672 16.528 15.8447 16.58 16H9.5C9.23478 16 8.98043 15.8946 8.79289 15.7071C8.60536 15.5196 8.5 15.2652 8.5 15V4.5ZM22 13H20.127L21.414 7.458C21.562 6.82 22.5 6.928 22.5 7.582V12.5C22.5 12.6326 22.4473 12.7598 22.3536 12.8536C22.2598 12.9473 22.1326 13 22 13ZM17.5 7H20.51C20.4833 7.07333 20.46 7.15033 20.44 7.231L18.497 15.597C18.361 16.182 17.5 16.083 17.5 15.482V7Z" fill="white"/>
</g>
<defs>
<clipPath id="clip0_522_7124">
<rect width="20" height="20" fill="white" transform="translate(0.5)"/>
</clipPath>
</defs>
</svg>
