<svg width="21" height="22" viewBox="0 0 21 22" fill="none" xmlns="http://www.w3.org/2000/svg">
<g clip-path="url(#clip0_281_3600)">
<path d="M18.0722 15.2642L18.0913 15.297C18.1517 15.4127 18.1836 15.5413 18.1841 15.6721C18.1847 15.816 18.1473 15.9574 18.0757 16.0822C18.0041 16.2069 17.9008 16.3105 17.7764 16.3826C17.6519 16.4547 17.5106 16.4926 17.3668 16.4926H17.3667H4.31784H4.3177C4.17383 16.4927 4.0325 16.4547 3.90798 16.3826C3.78347 16.3106 3.68019 16.2069 3.60859 16.0821C3.53698 15.9573 3.49958 15.8158 3.50017 15.672C3.50077 15.5281 3.53932 15.3869 3.61196 15.2627L3.61235 15.2621C4.15565 14.3297 4.75484 12.6427 4.75484 9.74631V9.08703C4.75484 9.08702 4.75484 9.08701 4.75484 9.087C4.75496 7.47259 5.39636 5.92435 6.53795 4.78283C7.67956 3.6413 9.22786 3 10.8423 3H10.8886C12.5025 3.02652 14.0413 3.6873 15.1719 4.83951C16.3035 5.99263 16.9351 7.54513 16.9302 9.16071V9.16225V9.74806C16.9302 12.6443 17.5289 14.3318 18.0722 15.2642Z" stroke="white"/>
<path d="M13.4711 18.8108V18.8109L13.484 18.8106C13.5052 18.8101 13.5263 18.8138 13.5461 18.8215C13.5658 18.8292 13.5838 18.8408 13.599 18.8556C13.6142 18.8704 13.6262 18.8881 13.6345 18.9077C13.6427 18.9272 13.647 18.9482 13.647 18.9694C13.647 18.9906 13.6427 19.0116 13.6345 19.0312C13.6262 19.0507 13.6142 19.0684 13.599 19.0832C13.5838 19.098 13.5658 19.1096 13.5461 19.1174C13.5263 19.1251 13.5052 19.1288 13.484 19.1282L13.484 19.1281H13.4711H8.201V19.1279L8.18811 19.1282C8.16691 19.1288 8.14581 19.1251 8.12607 19.1174C8.10633 19.1096 8.08833 19.098 8.07314 19.0832C8.05794 19.0684 8.04588 19.0507 8.03763 19.0312C8.02939 19.0116 8.02515 18.9906 8.02515 18.9694C8.02515 18.9482 8.02939 18.9272 8.03763 18.9077C8.04588 18.8881 8.05794 18.8704 8.07314 18.8556C8.08833 18.8408 8.10633 18.8292 8.12607 18.8215C8.14581 18.8138 8.16691 18.8101 8.18811 18.8106L8.18811 18.8108H8.201H13.4711Z" stroke="white"/>
</g>
<defs>
<clipPath id="clip0_281_3600">
<rect width="21" height="21" fill="white" transform="translate(0 0.5)"/>
</clipPath>
</defs>
</svg>
