<svg width="40" height="24" viewBox="0 0 40 24" fill="none" xmlns="http://www.w3.org/2000/svg">
<path d="M34.5917 12.6812C34.7892 12.876 34.9867 13.0709 35.1902 13.2717C35.2539 13.3336 35.3176 13.3955 35.3832 13.4593C35.7275 13.7976 36.0113 14.1501 36.3017 14.5512C36.4744 14.7308 36.6513 14.904 36.8287 15.0775C36.9857 15.2401 36.9857 15.2401 37.1513 15.4862C37.3219 15.7242 37.4826 15.8747 37.6964 16.0582C38.0174 16.3377 38.2702 16.6306 38.527 16.9855C38.8743 17.4447 39.2593 17.8644 39.6361 18.2912C39.3454 18.7005 39.0597 19.0479 38.6956 19.3738C38.6392 19.4712 38.5828 19.5687 38.5246 19.6691C38.4682 19.6691 38.2398 20.2928 37.6585 20.4151C37.5929 20.4289 38.3536 19.799 38.3536 19.8659C38.2293 20.007 38.2293 20.007 38.0565 20.1714C37.6682 20.5518 37.3096 20.9584 36.9513 21.3757C36.886 21.4512 36.8208 21.5266 36.7535 21.6044C36.5475 21.8428 36.3417 22.0815 36.136 22.3203C35.8629 22.6372 35.5896 22.9539 35.3161 23.2703C35.2218 23.3801 35.2218 23.3801 35.1256 23.4921C35.0679 23.5588 35.0102 23.6256 34.9507 23.6943C34.8998 23.7534 34.8489 23.8126 34.7965 23.8735C34.6772 23.9996 34.6772 23.9996 34.5917 23.9996C34.5917 22.9603 34.5917 21.9209 34.5917 20.8501C34.2216 20.8508 33.8516 20.8514 33.4704 20.8521C30.0719 20.858 26.6734 20.8624 23.275 20.8652C22.829 20.8656 22.3829 20.866 21.9369 20.8663C21.8481 20.8664 21.7593 20.8665 21.6679 20.8666C20.2329 20.8679 18.7979 20.8702 17.363 20.8729C15.889 20.8757 14.415 20.8773 12.9411 20.8779C12.0326 20.8783 11.1241 20.8796 10.2157 20.882C9.5915 20.8836 8.96733 20.884 8.34314 20.8836C7.9838 20.8834 7.62446 20.8837 7.26512 20.8853C2.59594 20.905 2.59594 20.905 1.24699 19.3738C0.326234 18.1218 0.347195 16.7774 0.370621 15.2217C0.372339 15.0227 0.373899 14.8237 0.375296 14.6248C0.379036 14.1409 0.384923 13.6571 0.391995 13.1733C0.571777 13.4262 0.732948 13.6632 0.872928 13.9483C1.58454 15.0262 2.78606 15.4821 3.90512 15.6715C4.97399 15.8202 6.06554 15.7759 7.14069 15.7748C7.50994 15.7747 7.87919 15.7764 8.24844 15.7778C8.8865 15.78 9.52455 15.7812 10.1626 15.7817C11.0851 15.7823 12.0076 15.7846 12.9301 15.7872C14.4272 15.7915 15.9243 15.7944 17.4214 15.7965C18.8747 15.7986 20.3281 15.8013 21.7814 15.8048C21.8712 15.805 21.9609 15.8052 22.0534 15.8055C22.5036 15.8066 22.9539 15.8077 23.4042 15.8088C27.1334 15.8179 30.8625 15.8249 34.5917 15.8306C34.5917 14.7913 34.5917 13.752 34.5917 12.6812Z" fill="#D17C51"/>
<path d="M18.0686 0.193848C18.6377 -0.0727273 19.3534 -0.0505215 19.8928 0.272949C20.3131 0.571405 20.6537 0.956834 20.7522 1.47607C20.8088 2.10052 20.683 2.65689 20.2844 3.15088C19.8412 3.58093 19.329 3.74274 18.7258 3.73389C18.2708 3.68612 17.8576 3.46915 17.5422 3.13916C17.1588 2.58842 17.0023 2.09431 17.0833 1.41943C17.2592 0.88544 17.5677 0.455992 18.0686 0.193848Z" fill="#D17C51"/>
<path d="M18.0686 0.193848C18.6377 -0.0727273 19.3534 -0.0505215 19.8928 0.272949C20.3131 0.571405 20.6537 0.956834 20.7522 1.47607C20.8088 2.10052 20.683 2.65689 20.2844 3.15088C19.8412 3.58093 19.329 3.74274 18.7258 3.73389C18.2708 3.68612 17.8576 3.46915 17.5422 3.13916C17.1588 2.58842 17.0023 2.09431 17.0833 1.41943C17.2592 0.88544 17.5677 0.455992 18.0686 0.193848Z" stroke="#D17C51"/>
<path d="M20.3723 4.19678C21.5189 4.18258 21.5193 4.18243 21.9992 4.60986C22.348 4.96212 22.5287 5.50558 22.5334 5.9917C22.5345 6.09316 22.5342 6.09359 22.5353 6.19678C22.5358 6.27005 22.5369 6.34394 22.5373 6.41943C22.5378 6.49452 22.5378 6.56962 22.5383 6.64697C22.5391 6.80633 22.5398 6.96613 22.5402 7.12549C22.5409 7.32917 22.5428 7.53315 22.5451 7.73682C22.547 7.93172 22.5475 8.12686 22.548 8.32178C22.549 8.39459 22.5499 8.46747 22.551 8.54248C22.5494 9.1695 22.5493 9.17003 22.2941 9.4458C22.1297 9.60102 22.0107 9.64606 21.7853 9.65381C21.7382 9.65691 21.6904 9.6594 21.6418 9.6626C21.4006 9.59013 21.2734 9.43067 21.1476 9.21631C21.0997 9.00674 21.1011 8.80366 21.1037 8.58936C21.103 8.52983 21.1024 8.47002 21.1017 8.40869C21.1 8.2193 21.1001 8.02973 21.1008 7.84033C21.1 7.65097 21.0983 7.46134 21.0969 7.27197C21.0961 7.15447 21.0966 7.03694 21.0969 6.91943C21.0967 6.62761 21.0828 6.35058 21.0324 6.06299H20.8605C20.8612 6.11827 20.8618 6.17401 20.8625 6.23096C20.8683 6.75298 20.8724 7.27532 20.8752 7.79736C20.8767 8.0658 20.8788 8.3346 20.882 8.60303C20.8851 8.86208 20.8871 9.1213 20.8879 9.38037C20.8884 9.47901 20.8893 9.57764 20.8908 9.67627C20.8929 9.81477 20.8939 9.95377 20.8937 10.0923C20.8948 10.1329 20.8956 10.1735 20.8967 10.2153C20.8944 10.4294 20.8647 10.5299 20.7365 10.7036C20.5519 10.838 20.4661 10.858 20.2404 10.8589C20.175 10.8598 20.1096 10.8609 20.0422 10.8618C19.972 10.8612 19.9016 10.8605 19.8293 10.8599C19.7566 10.8601 19.6835 10.8606 19.6086 10.8608C19.4549 10.861 19.3013 10.8602 19.1476 10.8589C18.9513 10.8573 18.7551 10.8581 18.5588 10.8599C18.3708 10.8612 18.1823 10.8606 17.9943 10.8599C17.9241 10.8604 17.8538 10.8612 17.7814 10.8618C17.7158 10.8609 17.6498 10.8598 17.5822 10.8589C17.496 10.8585 17.4955 10.8583 17.4074 10.8579C17.1821 10.8062 17.0986 10.7196 16.9621 10.5347C16.9352 10.3751 16.9259 10.2511 16.9299 10.0923C16.9298 10.0486 16.9299 10.0045 16.9299 9.95947C16.9301 9.81589 16.9325 9.67237 16.9348 9.52881C16.9353 9.42898 16.9354 9.32883 16.9357 9.229C16.9368 8.96694 16.9394 8.70492 16.9426 8.44287C16.9455 8.1751 16.947 7.90694 16.9484 7.63916C16.9515 7.11397 16.9561 6.58815 16.9621 6.06299C16.8771 6.0913 16.877 6.09168 16.7902 6.12061C16.7324 6.45767 16.7235 6.78687 16.7209 7.12842C16.7193 7.24586 16.7177 7.36352 16.716 7.48096C16.7136 7.66488 16.7116 7.84879 16.7101 8.03271C16.7086 8.21124 16.7061 8.39034 16.7033 8.56885C16.7031 8.62363 16.7025 8.67842 16.7023 8.73486C16.6971 9.01918 16.6874 9.21413 16.5041 9.4458C16.4779 9.4795 16.451 9.51362 16.424 9.54834C16.2622 9.67034 16.0983 9.64809 15.9025 9.64209C15.6645 9.60249 15.5739 9.51118 15.4142 9.33154C15.3105 9.12053 15.2855 8.94925 15.2844 8.71533C15.2838 8.65088 15.283 8.58642 15.2824 8.52002V8.09131C15.2821 7.93888 15.2811 7.78572 15.2814 7.6333C15.2818 7.43962 15.2808 7.24592 15.2795 7.05225C15.2784 6.86574 15.2794 6.67918 15.2795 6.49268C15.279 6.42382 15.2781 6.35463 15.2775 6.28369C15.281 5.66026 15.3922 5.10764 15.8156 4.63037C16.1875 4.3278 16.4787 4.22095 16.9562 4.21826C17.0023 4.21779 17.0484 4.21679 17.0959 4.21631C17.2485 4.21489 17.4012 4.21421 17.5539 4.21338C17.6061 4.21307 17.6583 4.21272 17.7121 4.2124C17.9889 4.21087 18.2663 4.20932 18.5432 4.2085C18.7714 4.20773 18.9995 4.20693 19.2277 4.20459C19.504 4.20175 19.7806 4.20011 20.0568 4.19971C20.1618 4.19932 20.2673 4.19816 20.3723 4.19678Z" fill="#D17C51"/>
<path d="M20.3723 4.19678C21.5189 4.18258 21.5193 4.18243 21.9992 4.60986C22.348 4.96212 22.5287 5.50558 22.5334 5.9917C22.5345 6.09316 22.5342 6.09359 22.5353 6.19678C22.5358 6.27005 22.5369 6.34394 22.5373 6.41943C22.5378 6.49452 22.5378 6.56962 22.5383 6.64697C22.5391 6.80633 22.5398 6.96613 22.5402 7.12549C22.5409 7.32917 22.5428 7.53315 22.5451 7.73682C22.547 7.93172 22.5475 8.12686 22.548 8.32178C22.549 8.39459 22.5499 8.46747 22.551 8.54248C22.5494 9.1695 22.5493 9.17003 22.2941 9.4458C22.1297 9.60102 22.0107 9.64606 21.7853 9.65381C21.7382 9.65691 21.6904 9.6594 21.6418 9.6626C21.4006 9.59013 21.2734 9.43067 21.1476 9.21631C21.0997 9.00674 21.1011 8.80366 21.1037 8.58936C21.103 8.52983 21.1024 8.47002 21.1017 8.40869C21.1 8.2193 21.1001 8.02973 21.1008 7.84033C21.1 7.65097 21.0983 7.46134 21.0969 7.27197C21.0961 7.15447 21.0966 7.03694 21.0969 6.91943C21.0967 6.62761 21.0828 6.35058 21.0324 6.06299H20.8605C20.8612 6.11827 20.8618 6.17401 20.8625 6.23096C20.8683 6.75298 20.8724 7.27532 20.8752 7.79736C20.8767 8.0658 20.8788 8.3346 20.882 8.60303C20.8851 8.86208 20.8871 9.1213 20.8879 9.38037C20.8884 9.47901 20.8893 9.57764 20.8908 9.67627C20.8929 9.81477 20.8939 9.95377 20.8937 10.0923C20.8948 10.1329 20.8956 10.1735 20.8967 10.2153C20.8944 10.4294 20.8647 10.5299 20.7365 10.7036C20.5519 10.838 20.4661 10.858 20.2404 10.8589C20.175 10.8598 20.1096 10.8609 20.0422 10.8618C19.972 10.8612 19.9016 10.8605 19.8293 10.8599C19.7566 10.8601 19.6835 10.8606 19.6086 10.8608C19.4549 10.861 19.3013 10.8602 19.1476 10.8589C18.9513 10.8573 18.7551 10.8581 18.5588 10.8599C18.3708 10.8612 18.1823 10.8606 17.9943 10.8599C17.9241 10.8604 17.8538 10.8612 17.7814 10.8618C17.7158 10.8609 17.6498 10.8598 17.5822 10.8589C17.496 10.8585 17.4955 10.8583 17.4074 10.8579C17.1821 10.8062 17.0986 10.7196 16.9621 10.5347C16.9352 10.3751 16.9259 10.2511 16.9299 10.0923C16.9298 10.0486 16.9299 10.0045 16.9299 9.95947C16.9301 9.81589 16.9325 9.67237 16.9348 9.52881C16.9353 9.42898 16.9354 9.32883 16.9357 9.229C16.9368 8.96694 16.9394 8.70492 16.9426 8.44287C16.9455 8.1751 16.947 7.90694 16.9484 7.63916C16.9515 7.11397 16.9561 6.58815 16.9621 6.06299C16.8771 6.0913 16.877 6.09168 16.7902 6.12061C16.7324 6.45767 16.7235 6.78687 16.7209 7.12842C16.7193 7.24586 16.7177 7.36352 16.716 7.48096C16.7136 7.66488 16.7116 7.84879 16.7101 8.03271C16.7086 8.21124 16.7061 8.39034 16.7033 8.56885C16.7031 8.62363 16.7025 8.67842 16.7023 8.73486C16.6971 9.01918 16.6874 9.21413 16.5041 9.4458C16.4779 9.4795 16.451 9.51362 16.424 9.54834C16.2622 9.67034 16.0983 9.64809 15.9025 9.64209C15.6645 9.60249 15.5739 9.51118 15.4142 9.33154C15.3105 9.12053 15.2855 8.94925 15.2844 8.71533C15.2838 8.65088 15.283 8.58642 15.2824 8.52002V8.09131C15.2821 7.93888 15.2811 7.78572 15.2814 7.6333C15.2818 7.43962 15.2808 7.24592 15.2795 7.05225C15.2784 6.86574 15.2794 6.67918 15.2795 6.49268C15.279 6.42382 15.2781 6.35463 15.2775 6.28369C15.281 5.66026 15.3922 5.10764 15.8156 4.63037C16.1875 4.3278 16.4787 4.22095 16.9562 4.21826C17.0023 4.21779 17.0484 4.21679 17.0959 4.21631C17.2485 4.21489 17.4012 4.21421 17.5539 4.21338C17.6061 4.21307 17.6583 4.21272 17.7121 4.2124C17.9889 4.21087 18.2663 4.20932 18.5432 4.2085C18.7714 4.20773 18.9995 4.20693 19.2277 4.20459C19.504 4.20175 19.7806 4.20011 20.0568 4.19971C20.1618 4.19932 20.2673 4.19816 20.3723 4.19678Z" stroke="#D17C51"/>
<path d="M4.95282 0.183594C5.5219 -0.0829812 6.23762 -0.0607755 6.77704 0.262695C7.19733 0.561151 7.53788 0.94658 7.63641 1.46582C7.69301 2.09026 7.56725 2.64663 7.16864 3.14062C6.72542 3.57068 6.21324 3.73248 5.61005 3.72363C5.15506 3.67586 4.74183 3.4589 4.42645 3.12891C4.04297 2.57817 3.8865 2.08405 3.96747 1.40918C4.14338 0.875186 4.45196 0.445738 4.95282 0.183594Z" fill="#D17C51"/>
<path d="M4.95282 0.183594C5.5219 -0.0829812 6.23762 -0.0607755 6.77704 0.262695C7.19733 0.561151 7.53788 0.94658 7.63641 1.46582C7.69301 2.09026 7.56725 2.64663 7.16864 3.14062C6.72542 3.57068 6.21324 3.73248 5.61005 3.72363C5.15506 3.67586 4.74183 3.4589 4.42645 3.12891C4.04297 2.57817 3.8865 2.08405 3.96747 1.40918C4.14338 0.875186 4.45196 0.445738 4.95282 0.183594Z" stroke="#D17C51"/>
<path d="M7.25641 4.18652C8.40302 4.17233 8.40345 4.17217 8.88336 4.59961C9.23215 4.95187 9.41288 5.49533 9.41754 5.98145C9.41864 6.0829 9.41837 6.08334 9.41949 6.18652C9.41992 6.25979 9.42101 6.33369 9.42145 6.40918C9.42191 6.48427 9.42195 6.55936 9.42242 6.63672C9.42328 6.79607 9.42394 6.95588 9.42438 7.11523C9.42501 7.31892 9.42698 7.52289 9.42926 7.72656C9.43112 7.92147 9.4317 8.11661 9.43219 8.31152C9.43319 8.38434 9.43409 8.45721 9.43512 8.53223C9.43358 9.15925 9.43342 9.15978 9.17828 9.43555C9.01381 9.59077 8.89484 9.63581 8.66949 9.64355C8.62235 9.64666 8.57452 9.64915 8.52594 9.65234C8.28476 9.57988 8.15756 9.42042 8.0318 9.20605C7.98385 8.99649 7.98521 8.7934 7.98785 8.5791C7.9872 8.51957 7.98657 8.45977 7.9859 8.39844C7.98415 8.20905 7.98422 8.01948 7.98492 7.83008C7.98411 7.64071 7.98248 7.45108 7.98102 7.26172C7.98028 7.14422 7.98077 7.02668 7.98102 6.90918C7.98084 6.61736 7.96695 6.34033 7.91656 6.05273H7.74469C7.74532 6.10801 7.74599 6.16376 7.74664 6.2207C7.75245 6.74272 7.75652 7.26506 7.75934 7.78711C7.76083 8.05555 7.76293 8.32435 7.76617 8.59277C7.76929 8.85182 7.77129 9.11105 7.77203 9.37012C7.77256 9.46875 7.77342 9.56739 7.77496 9.66602C7.77705 9.80451 7.77803 9.94352 7.77789 10.082C7.77892 10.1226 7.77977 10.1632 7.78082 10.2051C7.7786 10.4191 7.7489 10.5196 7.62067 10.6934C7.43602 10.8277 7.35022 10.8477 7.12457 10.8486C7.05915 10.8495 6.99373 10.8506 6.92633 10.8516C6.85613 10.851 6.78576 10.8502 6.71344 10.8496C6.64076 10.8499 6.56762 10.8503 6.49274 10.8506C6.33907 10.8508 6.18544 10.85 6.0318 10.8486C5.83548 10.847 5.63925 10.8479 5.44293 10.8496C5.25492 10.8509 5.06649 10.8503 4.87848 10.8496C4.80822 10.8502 4.73797 10.851 4.66559 10.8516C4.59997 10.8507 4.53398 10.8496 4.46637 10.8486C4.38011 10.8483 4.37963 10.848 4.29156 10.8477C4.06625 10.7959 3.9828 10.7094 3.84625 10.5244C3.81934 10.3649 3.81003 10.2409 3.81403 10.082C3.81398 10.0384 3.81407 9.9942 3.81403 9.94922C3.81423 9.80564 3.81666 9.66212 3.81891 9.51855C3.81944 9.41873 3.8196 9.31858 3.81989 9.21875C3.82098 8.95669 3.82355 8.69466 3.82672 8.43262C3.82966 8.16485 3.83114 7.89668 3.83258 7.62891C3.83565 7.10372 3.84022 6.5779 3.84625 6.05273C3.7613 6.08105 3.76117 6.08142 3.67438 6.11035C3.61659 6.44741 3.60765 6.77661 3.60504 7.11816C3.60344 7.23561 3.60183 7.35326 3.60016 7.4707C3.59779 7.65462 3.5958 7.83853 3.5943 8.02246C3.59272 8.20098 3.59025 8.38009 3.58746 8.55859C3.58728 8.61338 3.58668 8.66817 3.58649 8.72461C3.58124 9.00893 3.57154 9.20388 3.38824 9.43555C3.36201 9.46924 3.3352 9.50337 3.30817 9.53809C3.14633 9.66009 2.98243 9.63784 2.78668 9.63184C2.5487 9.59223 2.45808 9.50093 2.2984 9.32129C2.19468 9.11028 2.16961 8.939 2.16852 8.70508C2.16797 8.64062 2.16713 8.57617 2.16656 8.50977V8.08105C2.16624 7.92863 2.16529 7.77547 2.16559 7.62305C2.16592 7.42937 2.16497 7.23567 2.16364 7.04199C2.16258 6.85549 2.16356 6.66893 2.16364 6.48242C2.16311 6.41357 2.16223 6.34438 2.16168 6.27344C2.16512 5.65001 2.27634 5.09739 2.69977 4.62012C3.07163 4.31754 3.36289 4.2107 3.84039 4.20801C3.88645 4.20754 3.93259 4.20654 3.98004 4.20605C4.13269 4.20463 4.2854 4.20395 4.43805 4.20312C4.49026 4.20282 4.54246 4.20246 4.59625 4.20215C4.87309 4.20062 5.15047 4.19907 5.42731 4.19824C5.65551 4.19748 5.88369 4.19668 6.11188 4.19434C6.38811 4.1915 6.66473 4.18986 6.94098 4.18945C7.04595 4.18907 7.15144 4.1879 7.25641 4.18652Z" fill="#D17C51"/>
<path d="M7.25641 4.18652C8.40302 4.17233 8.40345 4.17217 8.88336 4.59961C9.23215 4.95187 9.41288 5.49533 9.41754 5.98145C9.41864 6.0829 9.41837 6.08334 9.41949 6.18652C9.41992 6.25979 9.42101 6.33369 9.42145 6.40918C9.42191 6.48427 9.42195 6.55936 9.42242 6.63672C9.42328 6.79607 9.42394 6.95588 9.42438 7.11523C9.42501 7.31892 9.42698 7.52289 9.42926 7.72656C9.43112 7.92147 9.4317 8.11661 9.43219 8.31152C9.43319 8.38434 9.43409 8.45721 9.43512 8.53223C9.43358 9.15925 9.43342 9.15978 9.17828 9.43555C9.01381 9.59077 8.89484 9.63581 8.66949 9.64355C8.62235 9.64666 8.57452 9.64915 8.52594 9.65234C8.28476 9.57988 8.15756 9.42042 8.0318 9.20605C7.98385 8.99649 7.98521 8.7934 7.98785 8.5791C7.9872 8.51957 7.98657 8.45977 7.9859 8.39844C7.98415 8.20905 7.98422 8.01948 7.98492 7.83008C7.98411 7.64071 7.98248 7.45108 7.98102 7.26172C7.98028 7.14422 7.98077 7.02668 7.98102 6.90918C7.98084 6.61736 7.96695 6.34033 7.91656 6.05273H7.74469C7.74532 6.10801 7.74599 6.16376 7.74664 6.2207C7.75245 6.74272 7.75652 7.26506 7.75934 7.78711C7.76083 8.05555 7.76293 8.32435 7.76617 8.59277C7.76929 8.85182 7.77129 9.11105 7.77203 9.37012C7.77256 9.46875 7.77342 9.56739 7.77496 9.66602C7.77705 9.80451 7.77803 9.94352 7.77789 10.082C7.77892 10.1226 7.77977 10.1632 7.78082 10.2051C7.7786 10.4191 7.7489 10.5196 7.62067 10.6934C7.43602 10.8277 7.35022 10.8477 7.12457 10.8486C7.05915 10.8495 6.99373 10.8506 6.92633 10.8516C6.85613 10.851 6.78576 10.8502 6.71344 10.8496C6.64076 10.8499 6.56762 10.8503 6.49274 10.8506C6.33907 10.8508 6.18544 10.85 6.0318 10.8486C5.83548 10.847 5.63925 10.8479 5.44293 10.8496C5.25492 10.8509 5.06649 10.8503 4.87848 10.8496C4.80822 10.8502 4.73797 10.851 4.66559 10.8516C4.59997 10.8507 4.53398 10.8496 4.46637 10.8486C4.38011 10.8483 4.37963 10.848 4.29156 10.8477C4.06625 10.7959 3.9828 10.7094 3.84625 10.5244C3.81934 10.3649 3.81003 10.2409 3.81403 10.082C3.81398 10.0384 3.81407 9.9942 3.81403 9.94922C3.81423 9.80564 3.81666 9.66212 3.81891 9.51855C3.81944 9.41873 3.8196 9.31858 3.81989 9.21875C3.82098 8.95669 3.82355 8.69466 3.82672 8.43262C3.82966 8.16485 3.83114 7.89668 3.83258 7.62891C3.83565 7.10372 3.84022 6.5779 3.84625 6.05273C3.7613 6.08105 3.76117 6.08142 3.67438 6.11035C3.61659 6.44741 3.60765 6.77661 3.60504 7.11816C3.60344 7.23561 3.60183 7.35326 3.60016 7.4707C3.59779 7.65462 3.5958 7.83853 3.5943 8.02246C3.59272 8.20098 3.59025 8.38009 3.58746 8.55859C3.58728 8.61338 3.58668 8.66817 3.58649 8.72461C3.58124 9.00893 3.57154 9.20388 3.38824 9.43555C3.36201 9.46924 3.3352 9.50337 3.30817 9.53809C3.14633 9.66009 2.98243 9.63784 2.78668 9.63184C2.5487 9.59223 2.45808 9.50093 2.2984 9.32129C2.19468 9.11028 2.16961 8.939 2.16852 8.70508C2.16797 8.64062 2.16713 8.57617 2.16656 8.50977V8.08105C2.16624 7.92863 2.16529 7.77547 2.16559 7.62305C2.16592 7.42937 2.16497 7.23567 2.16364 7.04199C2.16258 6.85549 2.16356 6.66893 2.16364 6.48242C2.16311 6.41357 2.16223 6.34438 2.16168 6.27344C2.16512 5.65001 2.27634 5.09739 2.69977 4.62012C3.07163 4.31754 3.36289 4.2107 3.84039 4.20801C3.88645 4.20754 3.93259 4.20654 3.98004 4.20605C4.13269 4.20463 4.2854 4.20395 4.43805 4.20312C4.49026 4.20282 4.54246 4.20246 4.59625 4.20215C4.87309 4.20062 5.15047 4.19907 5.42731 4.19824C5.65551 4.19748 5.88369 4.19668 6.11188 4.19434C6.38811 4.1915 6.66473 4.18986 6.94098 4.18945C7.04595 4.18907 7.15144 4.1879 7.25641 4.18652Z" stroke="#D17C51"/>
<path d="M32.1756 0.188921C32.6393 0.472378 32.9685 0.821656 33.1233 1.34734C33.2451 1.92294 33.1493 2.40724 32.8654 2.92094C32.5855 3.33827 32.1529 3.57531 31.6758 3.70852C31.1266 3.76846 30.671 3.70158 30.2173 3.38001C29.8647 3.08897 29.5824 2.73437 29.4974 2.27533C29.4355 1.624 29.5204 1.12224 29.9434 0.601859C30.5201 -0.0039273 31.4083 -0.172993 32.1756 0.188921Z" fill="#D17C51"/>
<path d="M32.6925 4.18945C33.9381 4.17724 33.9379 4.17807 34.4103 4.57715C34.7737 5.07765 34.9478 5.5233 34.9523 6.14941C34.9528 6.21253 34.9527 6.27579 34.9532 6.34082C34.9535 6.40814 34.954 6.47556 34.9542 6.54492C34.9546 6.61484 34.9549 6.6848 34.9552 6.75684C34.9557 6.90446 34.956 7.05257 34.9562 7.2002C34.9567 7.42574 34.9593 7.65142 34.9611 7.87695C34.9614 8.02051 34.9618 8.16406 34.962 8.30762C34.9627 8.37496 34.9633 8.44233 34.964 8.51172C34.9629 8.92278 34.9301 9.192 34.6525 9.51172C34.4074 9.64722 34.185 9.65793 33.9113 9.60449C33.7493 9.47893 33.6574 9.38484 33.5665 9.20312C33.5601 9.11475 33.5571 9.0261 33.5558 8.9375C33.5548 8.88221 33.5538 8.82649 33.5529 8.76953C33.5521 8.70961 33.5517 8.64962 33.5509 8.58789C33.5498 8.52638 33.5491 8.46474 33.548 8.40137C33.5446 8.20412 33.5412 8.00683 33.5382 7.80957C33.5343 7.55077 33.5299 7.29199 33.5255 7.0332C33.5247 6.97372 33.5244 6.91381 33.5236 6.85254C33.5226 6.79669 33.5216 6.74016 33.5206 6.68262C33.5199 6.63395 33.5194 6.58528 33.5187 6.53516C33.5096 6.38853 33.4843 6.25065 33.4523 6.10742C33.3673 6.07909 33.367 6.07964 33.2804 6.05078C33.2799 6.13598 33.2799 6.13643 33.2794 6.22363C33.2761 6.76075 33.2718 7.29786 33.2667 7.83496C33.2642 8.11119 33.2624 8.38782 33.2609 8.66406C33.2594 8.93058 33.2569 9.19736 33.254 9.46387C33.2531 9.56559 33.2524 9.6678 33.2521 9.76953C33.2515 9.91173 33.25 10.0541 33.2482 10.1963C33.2483 10.2595 33.248 10.2596 33.2482 10.3242C33.2452 10.4857 33.2396 10.6087 33.1554 10.749C33.0082 10.8331 32.8951 10.8316 32.7257 10.833C32.6257 10.8344 32.6253 10.8336 32.5236 10.835C32.4154 10.835 32.4148 10.8349 32.3048 10.835C32.2307 10.8354 32.1556 10.8365 32.0792 10.8369C31.9224 10.8377 31.7654 10.8372 31.6085 10.8369C31.4077 10.8366 31.2068 10.8385 31.006 10.8408C30.8142 10.8427 30.6225 10.8428 30.4308 10.8428C30.3588 10.8437 30.2862 10.8447 30.212 10.8457C30.1117 10.8449 30.1115 10.8446 30.0089 10.8438C29.9205 10.8439 29.9204 10.8436 29.8302 10.8438C29.6021 10.7935 29.5195 10.7086 29.382 10.5215C29.355 10.3619 29.3457 10.238 29.3497 10.0791C29.3497 10.0354 29.3498 9.99127 29.3497 9.94629C29.3499 9.80274 29.3514 9.65915 29.3536 9.51562C29.3542 9.41583 29.3553 9.31561 29.3556 9.21582C29.3567 8.95375 29.3593 8.69173 29.3624 8.42969C29.3654 8.16189 29.3668 7.89379 29.3683 7.62598C29.3714 7.10093 29.3759 6.57581 29.382 6.05078C29.297 6.07909 29.2967 6.07854 29.2101 6.10742C29.1544 6.27455 29.1454 6.38272 29.1447 6.55664C29.144 6.64104 29.1443 6.64144 29.1437 6.72754C29.1434 6.78813 29.1429 6.84871 29.1427 6.91113C29.1414 7.03962 29.1402 7.16839 29.1388 7.29688C29.1368 7.49955 29.1347 7.70259 29.1339 7.90527C29.133 8.10061 29.1306 8.29589 29.1281 8.49121C29.1282 8.55159 29.1289 8.61259 29.129 8.6748C29.1233 9.02071 29.1 9.22836 28.8663 9.49023C28.6238 9.65195 28.406 9.6495 28.1212 9.60449C27.9261 9.45818 27.8112 9.31279 27.7198 9.08887C27.7045 8.93495 27.7046 8.9347 27.7032 8.75684C27.7025 8.69012 27.7011 8.62342 27.7003 8.55469C27.7002 8.48261 27.7004 8.4102 27.7003 8.33594C27.6997 8.22433 27.6999 8.22424 27.6993 8.11035C27.6987 7.95251 27.6983 7.79456 27.6984 7.63672C27.6984 7.43601 27.6964 7.23488 27.6945 7.03418C27.6929 6.84115 27.6936 6.64812 27.6935 6.45508C27.6927 6.38387 27.6914 6.31262 27.6906 6.23926C27.6938 5.60545 27.8335 5.02121 28.2931 4.55957C28.6426 4.29373 28.9264 4.20765 29.3644 4.20605C29.4092 4.20568 29.454 4.20547 29.5001 4.20508C29.6488 4.20395 29.7978 4.20272 29.9464 4.20215C30.0227 4.2018 30.0228 4.20153 30.1007 4.20117C30.3705 4.19998 30.6405 4.19976 30.9103 4.19922C31.1876 4.19859 31.465 4.19662 31.7423 4.19434C31.9567 4.19283 32.1715 4.19259 32.3859 4.19238C32.488 4.1921 32.5904 4.19052 32.6925 4.18945Z" fill="#D17C51"/>
<path d="M32.6925 4.18945C33.9381 4.17724 33.9379 4.17807 34.4103 4.57715C34.7737 5.07765 34.9478 5.5233 34.9523 6.14941C34.9528 6.21253 34.9527 6.27579 34.9532 6.34082C34.9535 6.40814 34.954 6.47556 34.9542 6.54492C34.9546 6.61484 34.9549 6.6848 34.9552 6.75684C34.9557 6.90446 34.956 7.05257 34.9562 7.2002C34.9567 7.42574 34.9593 7.65142 34.9611 7.87695C34.9614 8.02051 34.9618 8.16406 34.962 8.30762C34.9627 8.37496 34.9633 8.44233 34.964 8.51172C34.9629 8.92278 34.9301 9.192 34.6525 9.51172C34.4074 9.64722 34.185 9.65793 33.9113 9.60449C33.7493 9.47893 33.6574 9.38484 33.5665 9.20312C33.5601 9.11475 33.5571 9.0261 33.5558 8.9375C33.5548 8.88221 33.5538 8.82649 33.5529 8.76953C33.5521 8.70961 33.5517 8.64962 33.5509 8.58789C33.5498 8.52638 33.5491 8.46474 33.548 8.40137C33.5446 8.20412 33.5412 8.00683 33.5382 7.80957C33.5343 7.55077 33.5299 7.29199 33.5255 7.0332C33.5247 6.97372 33.5244 6.91381 33.5236 6.85254C33.5226 6.79669 33.5216 6.74016 33.5206 6.68262C33.5199 6.63395 33.5194 6.58528 33.5187 6.53516C33.5096 6.38853 33.4843 6.25065 33.4523 6.10742C33.3673 6.07909 33.367 6.07964 33.2804 6.05078C33.2799 6.13598 33.2799 6.13643 33.2794 6.22363C33.2761 6.76075 33.2718 7.29786 33.2667 7.83496C33.2642 8.11119 33.2624 8.38782 33.2609 8.66406C33.2594 8.93058 33.2569 9.19736 33.254 9.46387C33.2531 9.56559 33.2524 9.6678 33.2521 9.76953C33.2515 9.91173 33.25 10.0541 33.2482 10.1963C33.2483 10.2595 33.248 10.2596 33.2482 10.3242C33.2452 10.4857 33.2396 10.6087 33.1554 10.749C33.0082 10.8331 32.8951 10.8316 32.7257 10.833C32.6257 10.8344 32.6253 10.8336 32.5236 10.835C32.4154 10.835 32.4148 10.8349 32.3048 10.835C32.2307 10.8354 32.1556 10.8365 32.0792 10.8369C31.9224 10.8377 31.7654 10.8372 31.6085 10.8369C31.4077 10.8366 31.2068 10.8385 31.006 10.8408C30.8142 10.8427 30.6225 10.8428 30.4308 10.8428C30.3588 10.8437 30.2862 10.8447 30.212 10.8457C30.1117 10.8449 30.1115 10.8446 30.0089 10.8438C29.9205 10.8439 29.9204 10.8436 29.8302 10.8438C29.6021 10.7935 29.5195 10.7086 29.382 10.5215C29.355 10.3619 29.3457 10.238 29.3497 10.0791C29.3497 10.0354 29.3498 9.99127 29.3497 9.94629C29.3499 9.80274 29.3514 9.65915 29.3536 9.51562C29.3542 9.41583 29.3553 9.31561 29.3556 9.21582C29.3567 8.95375 29.3593 8.69173 29.3624 8.42969C29.3654 8.16189 29.3668 7.89379 29.3683 7.62598C29.3714 7.10093 29.3759 6.57581 29.382 6.05078C29.297 6.07909 29.2967 6.07854 29.2101 6.10742C29.1544 6.27455 29.1454 6.38272 29.1447 6.55664C29.144 6.64104 29.1443 6.64144 29.1437 6.72754C29.1434 6.78813 29.1429 6.84871 29.1427 6.91113C29.1414 7.03962 29.1402 7.16839 29.1388 7.29688C29.1368 7.49955 29.1347 7.70259 29.1339 7.90527C29.133 8.10061 29.1306 8.29589 29.1281 8.49121C29.1282 8.55159 29.1289 8.61259 29.129 8.6748C29.1233 9.02071 29.1 9.22836 28.8663 9.49023C28.6238 9.65195 28.406 9.6495 28.1212 9.60449C27.9261 9.45818 27.8112 9.31279 27.7198 9.08887C27.7045 8.93495 27.7046 8.9347 27.7032 8.75684C27.7025 8.69012 27.7011 8.62342 27.7003 8.55469C27.7002 8.48261 27.7004 8.4102 27.7003 8.33594C27.6997 8.22433 27.6999 8.22424 27.6993 8.11035C27.6987 7.95251 27.6983 7.79456 27.6984 7.63672C27.6984 7.43601 27.6964 7.23488 27.6945 7.03418C27.6929 6.84115 27.6936 6.64812 27.6935 6.45508C27.6927 6.38387 27.6914 6.31262 27.6906 6.23926C27.6938 5.60545 27.8335 5.02121 28.2931 4.55957C28.6426 4.29373 28.9264 4.20765 29.3644 4.20605C29.4092 4.20568 29.454 4.20547 29.5001 4.20508C29.6488 4.20395 29.7978 4.20272 29.9464 4.20215C30.0227 4.2018 30.0228 4.20153 30.1007 4.20117C30.3705 4.19998 30.6405 4.19976 30.9103 4.19922C31.1876 4.19859 31.465 4.19662 31.7423 4.19434C31.9567 4.19283 32.1715 4.19259 32.3859 4.19238C32.488 4.1921 32.5904 4.19052 32.6925 4.18945Z" stroke="#D17C51"/>
</svg>
