<svg width="19" height="18" viewBox="0 0 19 18" fill="none" xmlns="http://www.w3.org/2000/svg">
<path d="M8.24347 3.23798C8.56327 1.92067 10.4367 1.92067 10.7565 3.23798C10.9631 4.08895 11.9381 4.49278 12.6859 4.03714C13.8435 3.33179 15.1682 4.65653 14.4629 5.81414C14.0072 6.56194 14.4111 7.53688 15.262 7.74347C16.5793 8.06327 16.5793 9.93673 15.262 10.2565C14.4111 10.4631 14.0072 11.4381 14.4629 12.1859C15.1682 13.3435 13.8435 14.6682 12.6859 13.9629C11.9381 13.5072 10.9631 13.9111 10.7565 14.762C10.4367 16.0793 8.56327 16.0793 8.24347 14.762C8.03688 13.9111 7.06194 13.5072 6.31414 13.9629C5.15653 14.6682 3.83179 13.3435 4.53714 12.1859C4.99278 11.4381 4.58895 10.4631 3.73798 10.2565C2.42067 9.93673 2.42067 8.06327 3.73798 7.74347C4.58895 7.53688 4.99278 6.56194 4.53714 5.81414C3.83179 4.65653 5.15653 3.33179 6.31414 4.03714C7.06194 4.49278 8.03688 4.08895 8.24347 3.23798Z" stroke="white" stroke-linecap="round" stroke-linejoin="round"/>
<path d="M11.75 9C11.75 10.2426 10.7426 11.25 9.5 11.25C8.25736 11.25 7.25 10.2426 7.25 9C7.25 7.75736 8.25736 6.75 9.5 6.75C10.7426 6.75 11.75 7.75736 11.75 9Z" stroke="white" stroke-linecap="round" stroke-linejoin="round"/>
</svg>
