<svg width="22" height="25" viewBox="0 0 22 25" fill="none" xmlns="http://www.w3.org/2000/svg">
<path d="M13.9096 9.33333H10.5762C10.0458 9.33333 9.53709 9.54405 9.16202 9.91912C8.78695 10.2942 8.57623 10.8029 8.57623 11.3333C8.57623 11.8638 8.78695 12.3725 9.16202 12.7475C9.53709 13.1226 10.0458 13.3333 10.5762 13.3333H11.9096C12.44 13.3333 12.9487 13.544 13.3238 13.9191C13.6989 14.2942 13.9096 14.8029 13.9096 15.3333C13.9096 15.8638 13.6989 16.3725 13.3238 16.7475C12.9487 17.1226 12.44 17.3333 11.9096 17.3333H8.57623M11.2429 8V9.33333M11.2429 17.3333V18.6667" stroke="#D17C51" stroke-width="2" stroke-linecap="round" stroke-linejoin="round"/>
<path d="M17.9095 1.3335V3.84283C17.9095 4.75616 18.4255 5.59216 19.2429 6.00016C20.0602 6.40816 20.5762 7.24416 20.5762 8.1575V20.0002C20.5762 21.061 20.1548 22.0784 19.4046 22.8286C18.6545 23.5787 17.6371 24.0002 16.5762 24.0002H5.90955C4.84868 24.0002 3.83126 23.5787 3.08112 22.8286C2.33097 22.0784 1.90955 21.061 1.90955 20.0002V8.1575C1.90955 7.24416 2.42555 6.40816 3.24288 6.00016C4.06021 5.59216 4.57621 4.75616 4.57621 3.84283V1.3335M3.24288 1.3335H19.2429" stroke="#D17C51" stroke-width="2" stroke-linecap="round" stroke-linejoin="round"/>
</svg>
